<svg version="1.1" xmlns="http://www.w3.org/2000/svg" viewBox="238 540 1611 278">
<path transform="translate(0,0)" fill="#141414" d="M 651.31 574.702 L 706.078 574.678 C 709.24 584.019 713.489 594.526 717.255 603.664 C 738.25 654.607 756.546 708.255 778.787 758.551 C 787.926 737.31 796.735 713.385 805.264 691.734 L 851.272 574.761 L 905.055 574.7 L 905.063 808.004 L 868.731 808.012 L 868.718 663.75 L 868.682 625.581 C 860.31 643.317 852.5 664.763 844.906 683.053 C 827.775 724.308 812.166 766.823 795.122 808.028 L 761.18 808.064 L 715.647 694.525 C 706.679 672.251 697.481 648.216 687.844 626.349 C 686.61 645.16 687.351 671.659 687.343 691.122 L 687.361 808.019 L 651.303 808.001 L 651.31 574.702 z"/>
<path transform="translate(0,0)" fill="#141414" d="M 1670.78 635.378 C 1697.49 632.733 1714.67 641.494 1728.16 664.197 C 1742.82 643.493 1758.93 635.848 1784.21 635.169 C 1813.55 634.382 1836.13 649.717 1841.55 679.227 C 1844.53 695.434 1843.35 713.915 1843.34 730.579 L 1843.22 807.967 L 1807.17 808.039 L 1807.29 738.64 C 1807.3 731.385 1807.39 723.973 1807.3 716.757 C 1807.13 703.24 1807.93 686.787 1797.89 676.353 C 1785.97 663.965 1759.79 665.426 1748.03 677.54 C 1734.19 691.795 1735.75 711.684 1735.72 730.015 C 1735.73 745.073 1735.79 759.918 1735.85 774.864 L 1735.74 807.971 L 1699.37 808.031 L 1699.52 740.077 C 1699.58 713.719 1705.88 668.002 1667.66 667.856 C 1621.08 667.679 1626.23 710.62 1626.23 743.688 L 1626.13 807.965 L 1589.82 807.994 L 1589.87 639.135 L 1625.24 639.146 L 1625.13 661.905 C 1626.22 660.179 1627.38 658.504 1628.61 656.885 C 1639.8 642.33 1653.21 637.65 1670.78 635.378 z"/>
<path transform="translate(0,0)" fill="#141414" d="M 264.046 545.497 C 285.608 544.424 315.725 545.253 337.701 545.36 L 397.258 607.279 L 457.493 545.219 C 481.857 545.199 508.41 544.679 532.596 545.664 C 500.276 579.089 467.572 612.139 434.488 644.808 L 464.796 676.162 L 464.827 686.75 C 464.969 708.557 464.863 730.366 464.509 752.171 C 443.569 732.369 417.602 704.359 397.368 683.075 L 329.187 752.508 C 328.669 727.626 329.068 701.377 329.042 676.387 C 338.977 665.853 349.931 655.038 360.109 644.641 C 349.774 633.569 265.017 550.62 264.046 545.497 z"/>
<path transform="translate(0,0)" fill="#141414" d="M 1017.32 635.423 C 1048.71 632.394 1090.25 643.117 1095.5 678.523 C 1097.09 689.188 1096.95 698.788 1096.92 709.471 C 1096.89 725.788 1096.72 742.104 1096.44 758.419 C 1096.23 774.997 1094.33 782.117 1112.83 782.111 L 1112.77 808.48 C 1088.11 811.285 1068.89 813.84 1061.97 785.586 C 1040.27 810.489 1012.35 816.326 979.945 810.802 C 964.074 808.097 952.535 800.11 943.815 786.635 C 943.115 785.288 942.482 783.907 941.918 782.497 C 936.816 769.698 936.56 753.592 942.488 741.689 C 962.671 701.668 1017.62 714.067 1053.43 703.876 C 1063.79 700.927 1062.22 688.002 1058.3 681.189 C 1047.64 662.672 1011.04 664.039 994.729 673.049 C 985.963 677.891 983.865 684.914 981.679 694.018 L 945.609 694.014 C 951.781 650.48 975.769 639.065 1017.32 635.423 z"/>
<path transform="translate(0,0)" fill="#FAF8F4" d="M 1059.37 729.229 C 1059.93 729.467 1060.31 730.284 1060.78 730.951 C 1061.07 740.803 1061.5 748.99 1056.95 758.112 C 1044.41 783.228 1006.76 789.743 983.397 777.891 C 957.514 753.989 991.19 735.844 1014 736.549 C 1024.43 736.872 1049.7 732.637 1059.37 729.229 z"/>
<path transform="translate(0,0)" fill="#141414" d="M 1129.79 639.398 C 1144.43 638.989 1159.63 639.177 1174.32 639.161 L 1218.06 698.302 C 1232.72 679.32 1247.65 658.488 1262.06 639.128 L 1305.57 639.22 C 1283.15 667.287 1260.92 695.507 1238.89 723.879 C 1247.78 734.65 1302.65 801.592 1303.6 807.986 L 1262.11 808.038 L 1217.14 748.939 L 1171.72 808.028 L 1129.19 808.03 L 1196.07 723.812 C 1182.63 704.602 1162.2 682.669 1148.05 663.419 C 1142.92 656.429 1133.67 646.555 1129.79 639.398 z"/>
<path transform="translate(0,0)" fill="#141414" d="M 1454.68 639.139 L 1497.61 639.301 C 1475.19 667.277 1453 695.428 1431.03 723.751 L 1497.48 807.451 C 1492.44 808.559 1462.02 808.091 1454.54 808.032 C 1441.83 789.704 1423.31 766.41 1409.63 748.606 L 1364.24 807.983 L 1321.98 808.024 C 1343.92 779.639 1366.19 751.513 1388.79 723.654 C 1368.53 698.757 1340.85 664.825 1322.14 639.187 L 1366.9 639.145 C 1381.5 658.776 1395.94 678.523 1410.22 698.384 C 1424.8 678.453 1439.62 658.703 1454.68 639.139 z"/>
<path transform="translate(0,0)" fill="#141414" d="M 243.823 585.102 C 251.398 586.867 295.455 635.312 303.953 644.084 L 303.897 807.148 L 243.553 807.094 L 243.547 667.378 C 243.513 640.96 242.847 611.294 243.823 585.102 z"/>
<path transform="translate(0,0)" fill="#141414" d="M 546.042 585.569 L 547.862 586.633 C 550.457 594.054 548.708 784.808 548.486 807.067 L 492.75 807.142 C 491.792 807.053 491.298 806.704 490.35 806.293 C 489.315 802.833 489.835 768.372 489.834 762.209 L 489.785 643.558 C 508.258 625.499 527.962 604.272 546.042 585.569 z"/>
<path transform="translate(0,0)" fill="#141414" d="M 1521.17 639.107 L 1557.62 639.206 C 1558 695 1558.19 752.237 1557.56 807.993 L 1521.3 808.03 C 1520.26 753.013 1521.17 694.32 1521.17 639.107 z"/>
<path transform="translate(0,0)" fill="#9a9a9a" d="M 395.786 731.78 C 402.398 733.126 462.107 795.579 465.743 803.514 L 464.218 805.131 C 454.871 808.643 411.156 807.205 398.443 807.144 C 379.242 807.198 351.531 807.747 331.713 806.636 C 330.294 806.556 329.871 804.724 329.276 803.364 C 330.108 798.045 387.029 739.668 395.786 731.78 z"/>
<path transform="translate(0,0)" fill="#141414" d="M 1535.41 572.181 C 1547.4 569.762 1559.1 577.473 1561.6 589.448 C 1564.1 601.422 1556.48 613.174 1544.52 615.762 C 1532.44 618.376 1520.55 610.655 1518.02 598.56 C 1515.49 586.465 1523.29 574.625 1535.41 572.181 z"/>
</svg>
