<svg xmlns="http://www.w3.org/2000/svg" xmlns:xlink="http://www.w3.org/1999/xlink" width="412" height="492" viewBox="0 0 412 492"><defs><clipPath id="a"><rect width="16.682" height="21.287" fill="none"></rect></clipPath></defs><g transform="translate(-838 -169)"><path d="M15,10a5.006,5.006,0,0,0-5,5V337H402V15a5.006,5.006,0,0,0-5-5H15M15,0H397a15,15,0,0,1,15,15V347H0V15A15,15,0,0,1,15,0Z" transform="translate(838 169)" fill="#c29fd8"></path><path d="M0,0H412a0,0,0,0,1,0,0V140a15,15,0,0,1-15,15H15A15,15,0,0,1,0,140V0A0,0,0,0,1,0,0Z" transform="translate(838 506)" fill="#c29fd8"></path><path d="M7.812,30h1.8l5.112-14.8c.108-.288.324-1.116.36-1.188.036.108.252.9.36,1.188L20.556,30h1.8L29.808,8.4H27L21.816,24.348a10.289,10.289,0,0,0-.288,1.332s-.216-.936-.36-1.332L16.056,8.4h-1.8L9.144,24.348a9.656,9.656,0,0,0-.36,1.332c-.036-.108-.18-.972-.288-1.332L3.312,8.4H.36Zm32.94-7.812a5.171,5.171,0,0,0-5.472-4.932c-3.348,0-6.12,2.592-6.12,6.588,0,3.816,2.52,6.624,6.48,6.624a7.275,7.275,0,0,0,4.9-1.692V26.688a6.429,6.429,0,0,1-4.14,1.728c-4.032,0-4.86-2.916-4.644-4.9h8.82A5.646,5.646,0,0,0,40.752,22.188ZM38.2,21.5a1.362,1.362,0,0,1-.036.288H31.968a3.347,3.347,0,0,1,3.348-2.628C37.224,19.164,38.2,20.316,38.2,21.5Zm19.44-2.052V17.724H55.188v-4.14H52.56v4.14H50.076v1.728H52.56V30h2.628V19.452ZM73.692,30V17.724h-2.34l-.144,1.944a5.915,5.915,0,0,0-4.752-2.412c-3.276,0-5.976,2.736-5.976,6.588,0,3.924,2.7,6.624,5.976,6.624a5.818,5.818,0,0,0,4.752-2.412L71.352,30ZM67.068,19.272a4.233,4.233,0,0,1,4.14,4.608,4.222,4.222,0,0,1-4.14,4.572c-1.98,0-3.96-1.548-3.96-4.572S65.088,19.272,67.068,19.272ZM89.784,30l-6.3-6.8,6.048-5.472H86.544L80.856,22.98V8.4H78.228V30h2.628V23.664L86.544,30ZM103,22.188a5.171,5.171,0,0,0-5.472-4.932c-3.348,0-6.12,2.592-6.12,6.588,0,3.816,2.52,6.624,6.48,6.624a7.275,7.275,0,0,0,4.9-1.692V26.688a6.429,6.429,0,0,1-4.14,1.728c-4.032,0-4.86-2.916-4.644-4.9h8.82A5.646,5.646,0,0,0,103,22.188ZM100.44,21.5a1.362,1.362,0,0,1-.036.288H94.212a3.347,3.347,0,0,1,3.348-2.628C99.468,19.164,100.44,20.316,100.44,21.5Zm19.44-2.052V17.724h-2.448v-4.14H114.8v4.14H112.32v1.728H114.8V30h2.628V19.452ZM135.5,30V22.62c0-3.06-1.3-5.364-4.608-5.364a5.988,5.988,0,0,0-4.86,2.592V8.4h-2.628V30h2.628V22.98c0-2.052,2.232-3.6,4-3.6,1.872,0,2.844,1.044,2.844,3.384V30Zm15.372-7.812a5.171,5.171,0,0,0-5.472-4.932c-3.348,0-6.12,2.592-6.12,6.588,0,3.816,2.52,6.624,6.48,6.624a7.275,7.275,0,0,0,4.9-1.692V26.688a6.429,6.429,0,0,1-4.14,1.728c-4.032,0-4.86-2.916-4.644-4.9h8.82A5.646,5.646,0,0,0,150.876,22.188ZM148.32,21.5a1.362,1.362,0,0,1-.036.288h-6.192a3.347,3.347,0,0,1,3.348-2.628C147.348,19.164,148.32,20.316,148.32,21.5ZM173.3,30V22.62c0-3.06-1.3-5.364-4.608-5.364a5.988,5.988,0,0,0-4.86,2.592V8.4h-2.628V30h2.628V22.98c0-2.052,2.232-3.6,4-3.6,1.872,0,2.844,1.044,2.844,3.384V30Zm17.064,0V17.724h-2.34l-.144,1.944a5.915,5.915,0,0,0-4.752-2.412c-3.276,0-5.976,2.736-5.976,6.588,0,3.924,2.7,6.624,5.976,6.624a5.818,5.818,0,0,0,4.752-2.412L188.028,30Zm-6.624-10.728a4.233,4.233,0,0,1,4.14,4.608,4.222,4.222,0,0,1-4.14,4.572c-1.98,0-3.96-1.548-3.96-4.572S181.764,19.272,183.744,19.272Zm19.44,7.164c0-1.908-1.3-3.312-4.212-4-1.476-.36-2.268-.828-2.268-1.764,0-.9.576-1.548,2.088-1.548a7.023,7.023,0,0,1,3.456,1.116l.468-1.836a8.217,8.217,0,0,0-3.924-1.152c-3.132,0-4.392,1.8-4.392,3.744,0,1.692,1.08,3.132,3.78,3.78,2.016.468,2.7,1.08,2.7,1.98,0,1.188-.9,1.764-2.34,1.764a8.251,8.251,0,0,1-4.212-1.4l-.5,1.98a9.157,9.157,0,0,0,4.68,1.368C201.492,30.468,203.184,28.848,203.184,26.436Zm12.06,0c0-1.908-1.3-3.312-4.212-4-1.476-.36-2.268-.828-2.268-1.764,0-.9.576-1.548,2.088-1.548a7.023,7.023,0,0,1,3.456,1.116l.468-1.836a8.217,8.217,0,0,0-3.924-1.152c-3.132,0-4.392,1.8-4.392,3.744,0,1.692,1.08,3.132,3.78,3.78,2.016.468,2.7,1.08,2.7,1.98,0,1.188-.9,1.764-2.34,1.764a8.251,8.251,0,0,1-4.212-1.4l-.5,1.98a9.157,9.157,0,0,0,4.68,1.368C213.552,30.468,215.244,28.848,215.244,26.436ZM221.652,30V8.4h-2.628V30Zm15.372-7.812a5.171,5.171,0,0,0-5.472-4.932c-3.348,0-6.12,2.592-6.12,6.588,0,3.816,2.52,6.624,6.48,6.624a7.275,7.275,0,0,0,4.9-1.692V26.688a6.429,6.429,0,0,1-4.14,1.728c-4.032,0-4.86-2.916-4.644-4.9h8.82A5.646,5.646,0,0,0,237.024,22.188Zm-2.556-.684a1.362,1.362,0,0,1-.036.288H228.24a3.347,3.347,0,0,1,3.348-2.628C233.5,19.164,234.468,20.316,234.468,21.5Zm26.208,2.34a7.106,7.106,0,0,0-14.184,0,7.1,7.1,0,0,0,14.184,0Zm-2.628,0a4.467,4.467,0,1,1-8.928,0,4.466,4.466,0,1,1,8.928,0ZM276.444,30V17.724h-2.628v7.02c0,2.052-2.232,3.6-4,3.6-1.872,0-2.844-1.044-2.844-3.384V17.724h-2.628V25.1c0,3.06,1.3,5.364,4.608,5.364a6.2,6.2,0,0,0,4.968-2.592L274.1,30Zm11.088-10.548V17.724h-2.448v-4.14h-2.628v4.14h-2.484v1.728h2.484V30h2.628V19.452ZM15.588,59.844A6.863,6.863,0,0,0,8.5,53.184a6.69,6.69,0,1,0,0,13.356A6.892,6.892,0,0,0,15.588,59.844Zm-2.628,0A4.4,4.4,0,0,1,8.5,64.488a4.629,4.629,0,0,1,0-9.252A4.369,4.369,0,0,1,12.96,59.844ZM25.7,55.452V53.724H22.5V48.756c0-2.3.648-2.988,2.088-2.988a5.207,5.207,0,0,1,1.08.18V44.184a4.938,4.938,0,0,0-1.44-.252c-2.772,0-4.356,1.476-4.356,5.076v4.716H17.424v1.728h2.448V66H22.5V55.452Zm17.532-.9a8.58,8.58,0,0,0-4.32-1.224c-3.24,0-4.968,1.872-5.22,3.636-.288,1.98.576,3.636,3.816,4.32,1.476.324,1.98.72,1.872,1.4-.108.72-.828,1.044-1.872,1.044a7.32,7.32,0,0,1-4.248-1.44L32.4,64.884A8.93,8.93,0,0,0,37.332,66.4c3.1,0,5.148-1.44,5.508-4.14.216-1.62-.792-3.492-4.1-4.176-1.224-.252-1.692-.648-1.584-1.3.108-.54.648-.828,1.656-.828A6.863,6.863,0,0,1,42.372,57ZM54.108,57.36a2.282,2.282,0,0,1-.18.792H49.68c.576-1.8,1.584-2.52,2.736-2.52A1.527,1.527,0,0,1,54.108,57.36Zm-4.824,2.628h7.7A7.147,7.147,0,0,0,57.42,57.9c.18-2.736-2.088-4.572-5-4.572a7.17,7.17,0,0,0-7.02,6.8A5.563,5.563,0,0,0,51.228,66.4a7.882,7.882,0,0,0,4.9-1.332l.468-2.628A7.433,7.433,0,0,1,52.56,63.7a2.957,2.957,0,0,1-3.312-3.168S49.284,60.2,49.284,59.988ZM67.032,44.4H63.108L59.292,66h3.924Zm7.668,0H70.776L66.96,66h3.924Zm7.308,1.98H78.084l-.612,3.672H81.4Zm-1.3,7.344H76.788L74.628,66h3.924Zm15.624,4.464c.5-3.06-1.188-4.86-3.6-4.86a6.213,6.213,0,0,0-4.9,2.628,19.049,19.049,0,0,0,.108-2.232H84.2a20.1,20.1,0,0,1-.4,3.744L82.3,66H86.22l.972-5.4c.54-2.952,2.376-4.176,3.6-4.176,1.008,0,1.836.72,1.548,2.376L91.08,66H95Zm17.208-4.464h-2.808l-1.08,1.3a4.044,4.044,0,0,0-3.456-1.692,7.284,7.284,0,0,0-7.056,6.336c-.612,3.384,1.116,6.732,4.68,6.732a5.324,5.324,0,0,0,3.852-1.548l-.288,1.656c-.5,2.808-1.944,3.888-3.816,3.888a7.734,7.734,0,0,1-4.5-1.368l-.324,2.916a11.107,11.107,0,0,0,4.968,1.332c3.492,0,6.66-1.476,7.632-7.02Zm-4.788,6.156c-.4,2.3-1.836,3.744-3.492,3.744s-2.592-1.44-2.2-3.744,1.872-3.78,3.528-3.78C108.216,56.1,109.152,57.576,108.756,59.88ZM32.508,69h65.4v1h-65.4Zm79.056,0h3.1v1h-3.1ZM134.28,53.724h-2.592L127.8,62.976l-3.924-9.252h-2.592l5.22,11.7-3.348,7.6h2.628Zm15.624,6.12a7.1,7.1,0,1,0-7.092,6.7A6.863,6.863,0,0,0,149.9,59.844Zm-2.628,0a4.466,4.466,0,1,1-4.464-4.608A4.4,4.4,0,0,1,147.276,59.844ZM165.672,66V53.724h-2.628v7.02c0,2.052-2.232,3.6-4,3.6-1.872,0-2.844-1.044-2.844-3.384V53.724h-2.628V61.1c0,3.06,1.3,5.364,4.608,5.364a6.2,6.2,0,0,0,4.968-2.592l.18,2.124Zm11.844-10.08V53.256a5.8,5.8,0,0,0-4.788,2.592l-.18-2.124h-2.34V66h2.628V58.872C172.836,56.82,175.176,55.488,177.516,55.92Zm19.728,9.18V62.076a5.268,5.268,0,0,1-3.6,1.332,3.546,3.546,0,0,1,0-7.092,5.331,5.331,0,0,1,3.6,1.332V54.624a7.588,7.588,0,0,0-4.5-1.3,6.535,6.535,0,1,0,0,13.068A7.588,7.588,0,0,0,197.244,65.1Zm2.808-5.256c0,3.96,2.556,6.624,5.832,6.624a5.341,5.341,0,0,0,4.428-2.088L210.42,66h3.744V53.724H210.42l-.108,1.62a5.341,5.341,0,0,0-4.428-2.088C202.608,53.256,200.052,55.956,200.052,59.844Zm4.032,0c0-2.376,1.476-3.636,3.1-3.636,1.548,0,3.1,1.152,3.1,3.636s-1.548,3.672-3.1,3.672C205.56,63.516,204.084,62.256,204.084,59.844Zm22.716-2.7V53.256a5.073,5.073,0,0,0-4.5,2.664l-.216-2.2h-3.672V66h4.032V59.664C222.444,57.576,224.6,56.5,226.8,57.144Z" transform="translate(860 562)"></path><path d="M5.184.408A4.884,4.884,0,0,0,10.3-4.632,4.422,4.422,0,0,0,5.832-9.36,3.857,3.857,0,0,0,3.144-8.328v-4.464H9.72V-14.4H1.656v7.824l.96.6a2.944,2.944,0,0,1,2.928-1.9c1.968,0,2.928,1.464,2.928,3.24A3.328,3.328,0,0,1,5.16-1.056,5.511,5.511,0,0,1,1.152-2.808v1.8A6.277,6.277,0,0,0,5.184.408Z" transform="translate(1199 552)" fill="#fff"></path><path d="M9.7.446c-.187-.6-.489-.594-.675,0L6.894,7.224l-6.361.4c-.621.039-.713.364-.206.725L5.4,11.97,3.478,18.11c-.187.6.074.784.582.425l5.3-3.753,5.3,3.753c.506.359.768.169.582-.425L13.313,11.97,18.39,8.348c.506-.361.415-.686-.206-.725l-6.361-.4Z" transform="translate(1214.553 534.641)" fill="#fff"></path><path d="M.24,0H2.112L3.84-4.032h6.336L11.9,0h1.968L7.68-14.4H6.432ZM4.488-5.592l2.52-5.928,2.52,5.928ZM23.976,0V-14.4H22.224v7.392A3.81,3.81,0,0,0,19.152-8.5,4.125,4.125,0,0,0,15.168-4.1,4.119,4.119,0,0,0,19.152.312,3.879,3.879,0,0,0,22.32-1.3l.1,1.3ZM19.56-7.152A2.822,2.822,0,0,1,22.32-4.08a2.814,2.814,0,0,1-2.76,3.048A2.749,2.749,0,0,1,16.92-4.08,2.772,2.772,0,0,1,19.56-7.152ZM35.352,0V-8.184h-1.56l-.1,1.3A3.943,3.943,0,0,0,30.528-8.5,4.125,4.125,0,0,0,26.544-4.1,4.119,4.119,0,0,0,30.528.312,3.879,3.879,0,0,0,33.7-1.3l.1,1.3ZM30.936-7.152A2.822,2.822,0,0,1,33.7-4.08a2.814,2.814,0,0,1-2.76,3.048A2.749,2.749,0,0,1,28.3-4.08,2.772,2.772,0,0,1,30.936-7.152ZM51.96,0V-4.92c0-2.04-.7-3.576-2.9-3.576A3.937,3.937,0,0,0,45.84-6.624,2.536,2.536,0,0,0,43.128-8.5a3.68,3.68,0,0,0-3.072,1.728l-.12-1.416h-1.56V0h1.752V-4.68a2.492,2.492,0,0,1,2.424-2.4c1.248,0,1.728.7,1.728,2.232V0h1.752V-4.68a2.513,2.513,0,0,1,2.448-2.4c1.224,0,1.728.7,1.728,2.232V0Zm7.3,0h1.92V-6.792H69.12V0h1.92V-14.4H69.12v6H61.176v-6h-1.92Zm23.28,0V-8.184h-1.56l-.1,1.3A3.943,3.943,0,0,0,77.712-8.5,4.125,4.125,0,0,0,73.728-4.1,4.119,4.119,0,0,0,77.712.312,3.879,3.879,0,0,0,80.88-1.3l.1,1.3ZM78.12-7.152A2.822,2.822,0,0,1,80.88-4.08a2.814,2.814,0,0,1-2.76,3.048A2.749,2.749,0,0,1,75.48-4.08,2.772,2.772,0,0,1,78.12-7.152ZM87.312,0V-14.4H85.56V0Zm4.776,0V-14.4H90.336V0Z" transform="translate(863 552)" fill="#fff"></path><g transform="translate(967 526.497)"><g transform="translate(0 0)" clip-path="url(#a)"><path d="M16.682,2.906,13.777,0,10.869,2.906V5.374l2.047-2.049v9.788A6.462,6.462,0,0,1,6.461,19.57H0v1.717H6.461a8.183,8.183,0,0,0,8.172-8.174V3.323l2.049,2.051Z" transform="translate(0 0)" fill="#fff"></path></g></g><g transform="translate(1047.038 627.804)"><path d="M40.14,3.65A7.4,7.4,0,0,1,36.346,2.7a6.061,6.061,0,0,0-5.787,0,7.407,7.407,0,0,1-3.794.949,7.412,7.412,0,0,1-3.8-.949,5.487,5.487,0,0,0-2.9-.735A5.483,5.483,0,0,0,17.18,2.7a7.408,7.408,0,0,1-3.794.949A7.415,7.415,0,0,1,9.59,2.7a5.492,5.492,0,0,0-2.9-.736A5.491,5.491,0,0,0,3.8,2.7,7.416,7.416,0,0,1,0,3.65v-2A5.492,5.492,0,0,0,2.9.914a7.415,7.415,0,0,1,3.8-.949,7.416,7.416,0,0,1,3.8.949,5.491,5.491,0,0,0,2.9.735A5.484,5.484,0,0,0,16.281.914a7.407,7.407,0,0,1,3.794-.949,7.411,7.411,0,0,1,3.795.949,5.488,5.488,0,0,0,2.9.735A5.483,5.483,0,0,0,29.659.914a8.055,8.055,0,0,1,7.587,0,5.481,5.481,0,0,0,2.893.735Z" transform="translate(0 1.546)"></path></g></g></svg>