<svg xmlns="http://www.w3.org/2000/svg" width="129.916" height="128.455" viewBox="0 0 129.916 128.455"><g transform="translate(77.666 -25.889) rotate(59)"><path d="M113.628,40.732a51.64,51.64,0,0,0,6.507-7.856c2.307-3.442,4.553-7.2,4.531-11.848a3.918,3.918,0,0,0-1.145-3.162,1.171,1.171,0,0,0-1.346-.325.858.858,0,0,0-.29.176c-.173.176-.12.381-.05.64a2.666,2.666,0,0,1,.066.287c.517,3.057-1.07,5.419-2.6,7.706-.167.249-.334.495-.5.745a49.018,49.018,0,0,1-6.384,7.758,85.388,85.388,0,0,1-11.5,9.4,89.263,89.263,0,0,1-16.682,9.285c-.082.035-.165.078-.246.12a.592.592,0,0,1-1.022-.36,12.085,12.085,0,0,0-6.58-6.628,18.829,18.829,0,0,0-6.931-1.933,12.591,12.591,0,0,0-7.006,1.622,6.678,6.678,0,0,0-1.5,1.083,5.233,5.233,0,0,0-1.171,5.039,11.159,11.159,0,0,0,4.988,7.659A13.528,13.528,0,0,0,73.315,62l.732-.073.889-.086c.073.122.143.245.215.366-.132.145-.277.3-.429.448a25.373,25.373,0,0,1-5.176,3.678l-.568.335a57.539,57.539,0,0,1-14.821,6.173,79.151,79.151,0,0,1-15.889,2.43,162.557,162.557,0,0,1-21.742-.376l-.132-.01a3.489,3.489,0,0,0-1.82.187,1.943,1.943,0,0,0-.521.337.392.392,0,0,0-.139.346c.032.176.223.347.575.515a.947.947,0,0,0,.2.059c.113.026.22.051.255.129s.01.146-.057.264c-.722,1.366.2,1.895,1.1,2.406l.174.1a13.308,13.308,0,0,0,4.668,1.354c.343.054.693.111,1.032.171A92.917,92.917,0,0,0,38.219,82.5,88.431,88.431,0,0,0,53.408,80.98a28.017,28.017,0,0,0,9.256-2.733,16.59,16.59,0,0,1,2.956-1.223,16.837,16.837,0,0,0,2.817-1.149,53.808,53.808,0,0,0,10.014-6.647c.269-.239.531-.488.782-.736a16.492,16.492,0,0,0,4.34-7.4,3.11,3.11,0,0,1,.789-1.428,3.249,3.249,0,0,1,1.072-.7c2.3-.959,4.755-2.064,7.726-3.455a70.258,70.258,0,0,0,11.627-7.28,78,78,0,0,0,8.842-7.5Zm-29.607,14.2,9.673-4.568a31.662,31.662,0,0,1-9.673,4.568Zm-17.767,15.3c.668-.416,1.35-.835,2.01-1.236a84.592,84.592,0,0,0,8.225-5.489c-.294.347-.615.7-.956,1.037a28.7,28.7,0,0,1-9.28,5.688ZM64.361,52.773a5.511,5.511,0,0,1,.6-.492l.067-.05c2.591-1.941,5.564-1.318,8.189-.767A10.981,10.981,0,0,1,78.8,54.083a1.386,1.386,0,0,1,.524.862.476.476,0,0,1-.151.346,1.51,1.51,0,0,1-.644.326,20.468,20.468,0,0,1-9.739.761,9.192,9.192,0,0,1-4.24-1.89A1.464,1.464,0,0,1,64,53.511a1.025,1.025,0,0,1,.366-.732Z" transform="translate(5.806)" fill="#f2dab2"></path><path d="M21.363,77.023a1.577,1.577,0,0,0,.348-.823c.46-2.438.234-2.9-2.635-5.615a59.6,59.6,0,0,0-6.537-5.177c-.507-.363-1.026-.738-1.537-1.11a3.145,3.145,0,0,0-.291-.183c-.36-.206-.732-.419-.625-1.012a.878.878,0,0,1,.239-.489,1.546,1.546,0,0,1,.843-.334l.173-.035a26.369,26.369,0,0,0,5.423-1.979c.644-.29,1.312-.59,1.977-.867.71-.3,1.464-.533,2.192-.761a23.826,23.826,0,0,0,2.6-.941c2.225-1,4.556-1.864,6.823-2.7l.575-.2a8.55,8.55,0,0,0,1.258-.637,4.884,4.884,0,0,1,2.49-.864,1.757,1.757,0,0,0,1.3-.445c.492-.493.632-1.381.432-2.709A2,2,0,0,0,34.195,48.2a17.715,17.715,0,0,0-3.367.773C26.962,50.3,23.043,51.677,19.252,53l-.009.009c-3.255,1.139-6.622,2.318-9.938,3.466-1.259.43-2.552.81-3.808,1.173L4.4,57.969a5.474,5.474,0,0,0-2.378,1.171c-.76.758-.82,1.818-.214,3.777a7.846,7.846,0,0,0,4.293,4.944,73.792,73.792,0,0,1,11.9,7.08c.428.328.835.7,1.228,1.05.287.259.584.527.881.773C20.665,77.22,21.082,77.3,21.363,77.023ZM4.7,59.444l4.75-1.584.2-.064,4.553-1.52a29.386,29.386,0,0,1-9.5,3.168Z" transform="translate(0 14.266)" fill="#f2dab2"></path></g></svg>