<svg xmlns="http://www.w3.org/2000/svg" width="362" height="396" viewBox="0 0 362 396"><g transform="translate(-837.66 -169.056)"><g transform="translate(837.66 169.056)" fill="none" stroke="#c29fd8" stroke-width="10"><path d="M15,0H347a15,15,0,0,1,15,15V333a0,0,0,0,1,0,0H0a0,0,0,0,1,0,0V15A15,15,0,0,1,15,0Z" stroke="none"></path><path d="M15,5H347a10,10,0,0,1,10,10V328a0,0,0,0,1,0,0H5a0,0,0,0,1,0,0V15A10,10,0,0,1,15,5Z" fill="none"></path></g><path d="M0,0H362a0,0,0,0,1,0,0V56a15,15,0,0,1-15,15H15A15,15,0,0,1,0,56V0A0,0,0,0,1,0,0Z" transform="translate(837.66 494.056)" fill="#c29fd8"></path></g></svg>