<svg xmlns="http://www.w3.org/2000/svg" width="469.821" height="135.559" viewBox="0 0 469.821 135.559"><g transform="translate(-238.779 -369.93)"><g transform="translate(312.109 437.639)"><path d="M632.561,466.6H303.916a33.925,33.925,0,0,1,0-67.85H632.561a33.925,33.925,0,0,1,0,67.85ZM303.916,403.287a29.391,29.391,0,0,0,0,58.782H632.561a29.391,29.391,0,1,0,0-58.782Z" transform="translate(-269.995 -398.753)" fill="#fff"></path><g transform="translate(31.18 13.15)"><path d="M297.887,441.6a.688.688,0,0,1-.592.444h-6.169a.32.32,0,0,1-.3-.444l2.666-7.7-10.216-25.272a.316.316,0,0,1,.3-.395h7.454a.731.731,0,0,1,.592.395l5.527,15.894,4.59-15.845a.58.58,0,0,1,.543-.444h6.615a.3.3,0,0,1,.3.444Z" transform="translate(-283.268 -399.107)" fill="#ad8dd0"></path><path d="M307.428,434.667c-8.292,0-13.08-5.182-13.08-13.277s4.788-13.425,13.08-13.425,12.979,5.182,12.979,13.277S315.718,434.667,307.428,434.667Zm0-4.936c3.653,0,5.38-2.516,5.38-8.342,0-5.725-1.778-8.49-5.431-8.49-3.749.049-5.478,2.814-5.478,8.539S303.726,429.732,307.428,429.732Z" transform="translate(-268.32 -399.475)" fill="#ad8dd0"></path><path d="M315.1,434.25c-5.38,0-8.884-3.653-8.884-9.871v-5.33l-.1-10.367a.443.443,0,0,1,.446-.444h6.613a.44.44,0,0,1,.442.444l-.146,10.367v5.232c0,2.765,1.677,4.541,3.9,4.541,2.664,0,5.527-2.469,5.527-7.9v-1.875l-.1-10.367a.442.442,0,0,1,.444-.444h6.714a.442.442,0,0,1,.444.444l-.148,11.748.049,12.784a.442.442,0,0,1-.444.444h-6.267a.443.443,0,0,1-.446-.444l.148-2.765A10.258,10.258,0,0,1,315.1,434.25Z" transform="translate(-252.442 -399.107)" fill="#ad8dd0"></path><path d="M317.545,417.184a.369.369,0,0,1-.348-.444l1.532-5.53v-6.415a.442.442,0,0,1,.444-.444h6.267a.443.443,0,0,1,.446.444v5.924a1.473,1.473,0,0,1-.249.789l-4,5.33a.942.942,0,0,1-.691.345Z" transform="translate(-237.503 -404.351)" fill="#ad8dd0"></path><path d="M322.219,433.771a.442.442,0,0,1-.444-.444l.2-12.291-.2-12.241a.442.442,0,0,1,.444-.444h6.514a.443.443,0,0,1,.446.444l-.2,3.85a10.529,10.529,0,0,1,9.082-4.492,8.089,8.089,0,0,1,1.135.1.578.578,0,0,1,.444.543v4.59a.4.4,0,0,1-.444.395,5.972,5.972,0,0,0-.937-.049c-5.234,0-9.133,2.913-9.082,8.739v10.858a.443.443,0,0,1-.446.444Z" transform="translate(-231.317 -399.22)" fill="#ad8dd0"></path><path d="M354.575,425.438a.378.378,0,0,1,.395.444c-.641,4.639-5.084,8.786-12.19,8.786-8.492,0-13.082-5.577-13.082-13.277,0-8.1,4.837-13.425,12.932-13.425,8.342,0,12.981,5.528,13.129,14.414a.442.442,0,0,1-.444.444H337.152c.3,4.788,2.171,6.909,5.727,6.909a4.642,4.642,0,0,0,4.933-3.85.581.581,0,0,1,.545-.444Zm-11.894-12.587c-2.962,0-4.741,1.778-5.333,5.281h10.416C347.469,415.419,345.937,412.851,342.682,412.851Z" transform="translate(-220.628 -399.475)" fill="#ad8dd0"></path><path d="M367.377,433.658a.581.581,0,0,1-.545-.444l-4-18.657-3.456,18.657a.575.575,0,0,1-.54.444h-7.8a.582.582,0,0,1-.543-.444l-5.429-24.532a.369.369,0,0,1,.345-.444h6.566a.488.488,0,0,1,.493.444l2.864,18.708,3.5-18.708a.575.575,0,0,1,.54-.444h8.046a.576.576,0,0,1,.543.444l3.357,18.363,3.009-18.363a.489.489,0,0,1,.5-.444H380.8a.347.347,0,0,1,.348.444l-5.382,24.532a.578.578,0,0,1-.543.444Z" transform="translate(-199.906 -399.107)" fill="#ad8dd0"></path><path d="M385.512,425.438a.38.38,0,0,1,.395.444c-.644,4.639-5.086,8.786-12.192,8.786-8.49,0-13.08-5.577-13.08-13.277,0-8.1,4.834-13.425,12.932-13.425,8.339,0,12.981,5.528,13.127,14.414a.442.442,0,0,1-.442.444H368.089c.3,4.788,2.168,6.909,5.725,6.909a4.642,4.642,0,0,0,4.936-3.85.578.578,0,0,1,.543-.444Zm-11.9-12.587c-2.962,0-4.738,1.778-5.33,5.281H378.7C378.4,415.419,376.874,412.851,373.616,412.851Z" transform="translate(-178.89 -399.475)" fill="#ad8dd0"></path><path d="M372.994,438.9a.442.442,0,0,1-.442-.444l.2-16.831-.2-16.831a.442.442,0,0,1,.442-.444h6.467a.444.444,0,0,1,.446.444l-.2,16.831.2,16.831a.444.444,0,0,1-.446.444Z" transform="translate(-162.813 -404.351)" fill="#ad8dd0"></path><path d="M389.507,434.667c-8.147,0-12.984-5.182-12.984-13.277s4.837-13.425,13.129-13.425c6.516,0,10.761,3.7,11.353,9.23a.377.377,0,0,1-.395.444h-5.974a.526.526,0,0,1-.493-.444c-.592-2.861-2.368-4.245-4.491-4.245-3.749.049-5.527,2.765-5.527,8.391,0,5.826,1.825,8.342,5.527,8.391,2.518.049,4.393-1.727,4.689-5.034a.529.529,0,0,1,.493-.444h6.122a.378.378,0,0,1,.395.444C400.808,430.472,396.169,434.667,389.507,434.667Z" transform="translate(-157.455 -399.475)" fill="#ad8dd0"></path><path d="M400.616,434.667c-8.292,0-13.08-5.182-13.08-13.277s4.788-13.425,13.08-13.425,12.981,5.182,12.981,13.277S408.908,434.667,400.616,434.667Zm0-4.936c3.653,0,5.379-2.516,5.379-8.342,0-5.725-1.776-8.49-5.429-8.49-3.752.049-5.478,2.814-5.478,8.539S396.914,429.732,400.616,429.732Z" transform="translate(-142.597 -399.475)" fill="#ad8dd0"></path><path d="M406.891,424.867l.148,8.687a.442.442,0,0,1-.444.444h-6.761a.442.442,0,0,1-.444-.444l.148-8.687-.049-15.845a.442.442,0,0,1,.444-.444h6.317a.442.442,0,0,1,.444.444l-.148,2.765a8.4,8.4,0,0,1,7.306-3.8c3.554,0,6.073,1.529,7.257,4.787,2.173-3.85,4.736-4.787,7.75-4.787,5.133,0,8.1,3.11,8.1,9.871v7.01l.1,8.687a.444.444,0,0,1-.446.444H429.94a.442.442,0,0,1-.442-.444l.146-8.687v-6.911c0-3.059-1.233-4.541-3.256-4.541s-4.491,2.716-4.491,7.9v3.554l.148,8.687a.442.442,0,0,1-.444.444h-6.662a.443.443,0,0,1-.446-.444l.148-8.687v-6.911c0-3.059-1.184-4.541-3.258-4.541s-4.491,2.716-4.491,7.9Z" transform="translate(-126.605 -399.447)" fill="#ad8dd0"></path><path d="M440.931,425.438a.375.375,0,0,1,.395.444c-.639,4.639-5.083,8.786-12.19,8.786-8.49,0-13.08-5.577-13.08-13.277,0-8.1,4.837-13.425,12.932-13.425,8.342,0,12.981,5.528,13.129,14.414a.442.442,0,0,1-.444.444H423.507c.3,4.788,2.173,6.909,5.727,6.909a4.645,4.645,0,0,0,4.938-3.85.575.575,0,0,1,.54-.444Zm-11.894-12.587c-2.962,0-4.738,1.778-5.332,5.281h10.416C433.825,415.419,432.3,412.851,429.037,412.851Z" transform="translate(-104.12 -399.475)" fill="#ad8dd0"></path></g></g><g transform="translate(238.779 369.93)"><g transform="translate(3.176 41.915)"><path d="M450.831,397.447a55.9,55.9,0,0,1-18.194-2.662,58.978,58.978,0,0,0-33.834,0,63.516,63.516,0,0,1-36.388,0,59,59,0,0,0-33.842,0,63.532,63.532,0,0,1-36.393,0,59.034,59.034,0,0,0-33.851,0,55.919,55.919,0,0,1-18.2,2.662v-4.534a51.389,51.389,0,0,0,16.923-2.478,63.557,63.557,0,0,1,36.4,0,59.011,59.011,0,0,0,33.844,0,63.533,63.533,0,0,1,36.393,0,58.987,58.987,0,0,0,33.837,0,63.509,63.509,0,0,1,36.386,0,51.368,51.368,0,0,0,16.918,2.478Z" transform="translate(-240.131 -387.773)" fill="#fff"></path></g><path d="M255.462,401.955a.732.732,0,0,1-.395.594,14.586,14.586,0,0,1-4.639.839c-4.294,0-8.391-2.173-8.391-7.947l.047-12.735h-2.861a.442.442,0,0,1-.444-.444v-4.344a.442.442,0,0,1,.444-.444h2.861l-.047-5.924a.442.442,0,0,1,.444-.444h6.563a.443.443,0,0,1,.446.444l-.052,5.924h5.628a.442.442,0,0,1,.444.444v4.344a.442.442,0,0,1-.444.444h-5.675l.047,12.537c0,2.173,1.088,2.864,2.718,2.864a8.912,8.912,0,0,0,2.859-.444.37.37,0,0,1,.446.345Z" transform="translate(-238.779 -368.343)" fill="#f2d1a1"></path><path d="M259.508,383.9c-2.37,0-4.935,1.825-5.774,5.429l.2,14.71a.442.442,0,0,1-.444.444h-6.465a.443.443,0,0,1-.446-.444l.2-16.881-.2-16.782a.443.443,0,0,1,.446-.444h6.465a.442.442,0,0,1,.444.444l-.148,11.5a9.19,9.19,0,0,1,7.7-3.406c5.725,0,9.23,3.406,9.082,10.858v5.431l.148,9.279a.442.442,0,0,1-.444.444H263.6a.442.442,0,0,1-.444-.444l.148-9.18-.049-6.418C263.21,385.378,261.531,383.9,259.508,383.9Z" transform="translate(-228.26 -369.93)" fill="#f2d1a1"></path><path d="M276.339,399.52a.442.442,0,0,1-.444-.444l.1-2.518a9.316,9.316,0,0,1-7.5,3.456c-7.2,0-11.008-5.725-11.008-13.129,0-7.355,4.247-13.277,11.156-13.277a9.124,9.124,0,0,1,7.355,3.209l-.148-2.272a.442.442,0,0,1,.444-.444h6.615a.442.442,0,0,1,.444.444l-.148,12.291.148,12.241a.442.442,0,0,1-.444.444Zm-5.774-4.442c3.6,0,5.527-2.716,5.577-8.1.049-5.429-1.875-8.391-5.429-8.44-3.752-.1-5.678,2.713-5.678,7.947C265.035,392.214,267.011,395.127,270.565,395.078Z" transform="translate(-213.545 -364.969)" fill="#f2d1a1"></path><path d="M269.93,399.577a.443.443,0,0,1-.446-.444l.15-11.748-.052-12.784a.443.443,0,0,1,.446-.444H276.3a.442.442,0,0,1,.444.444l-.148,2.765a10.255,10.255,0,0,1,8.194-3.8c5.38,0,8.835,3.653,8.835,9.871v5.33l.148,10.367a.442.442,0,0,1-.444.444H286.71a.442.442,0,0,1-.444-.444l.1-10.367v-5.232c0-2.765-1.628-4.541-3.85-4.541-2.666,0-5.527,2.469-5.527,7.9v1.875l.1,10.367a.444.444,0,0,1-.446.444Z" transform="translate(-197.354 -365.026)" fill="#f2d1a1"></path><path d="M293.571,399.151l-3.16-5.629-2.42,3.061.049,7.454a.442.442,0,0,1-.444.444h-6.465a.443.443,0,0,1-.446-.444l.2-16.832-.2-16.831a.443.443,0,0,1,.446-.444H287.6a.442.442,0,0,1,.444.444l-.148,16.684v1.529l7.355-9.18a1.149,1.149,0,0,1,.74-.345h7.256c.2,0,.247.2.148.345l-7.848,8.786,9.18,15.894a.27.27,0,0,1-.247.395h-7.7a.716.716,0,0,1-.641-.395Z" transform="translate(-182.241 -369.93)" fill="#f2d1a1"></path><path d="M291.3,382.732a.442.442,0,0,1-.444-.444v-4.245a.442.442,0,0,1,.444-.444h12.836a.442.442,0,0,1,.442.444v4.245a.442.442,0,0,1-.442.444Z" transform="translate(-168.516 -359.584)" fill="#f2d1a1"></path><path d="M311.254,407.184a.692.692,0,0,1-.592.442h-6.171a.318.318,0,0,1-.3-.442l2.666-7.7-10.216-25.272a.316.316,0,0,1,.3-.395h7.451a.728.728,0,0,1,.592.395l5.53,15.892,4.59-15.842a.578.578,0,0,1,.543-.444h6.615a.3.3,0,0,1,.3.444Z" transform="translate(-160.724 -364.686)" fill="#f2d1a1"></path><path d="M320.795,400.246c-8.292,0-13.08-5.182-13.08-13.277s4.788-13.425,13.08-13.425,12.981,5.182,12.981,13.277S329.085,400.246,320.795,400.246Zm0-4.936c3.653,0,5.379-2.518,5.379-8.342,0-5.727-1.778-8.49-5.429-8.49-3.751.049-5.478,2.812-5.478,8.539S317.093,395.311,320.795,395.311Z" transform="translate(-145.776 -365.054)" fill="#f2d1a1"></path><path d="M328.467,399.829c-5.379,0-8.884-3.653-8.884-9.871v-5.332l-.1-10.364a.442.442,0,0,1,.444-.444h6.613a.443.443,0,0,1,.446.444l-.15,10.364v5.234c0,2.763,1.68,4.541,3.9,4.541,2.666,0,5.53-2.469,5.53-7.9v-1.877l-.1-10.364a.442.442,0,0,1,.442-.444h6.716a.442.442,0,0,1,.442.444l-.146,11.748.047,12.784a.442.442,0,0,1-.442.444h-6.27a.443.443,0,0,1-.446-.444l.15-2.765A10.266,10.266,0,0,1,328.467,399.829Z" transform="translate(-129.898 -364.686)" fill="#f2d1a1"></path></g></g></svg>