<svg xmlns="http://www.w3.org/2000/svg" xmlns:xlink="http://www.w3.org/1999/xlink" width="469.82" height="195.602" viewBox="0 0 469.82 195.602"><defs><clipPath id="a"><rect width="469.82" height="195.602" fill="none"></rect></clipPath></defs><g transform="translate(0 0)"><g transform="translate(0 0)" clip-path="url(#a)"><path d="M115.3,29.789H254.512a45.68,45.68,0,0,1,0,91.361H115.3a45.68,45.68,0,0,1,0-91.361Z" transform="translate(166.362 71.185)" fill="none" stroke="#fff" stroke-miterlimit="10" stroke-width="5"></path><path d="M101.3,55.71c-3.42,0-7.122,2.634-8.332,7.833l.285,21.226a.638.638,0,0,1-.641.641H83.288a.639.639,0,0,1-.644-.641l.285-24.358L82.644,36.2a.639.639,0,0,1,.644-.641h9.328a.638.638,0,0,1,.641.641l-.217,16.6q3.849-4.917,11.115-4.915c8.261,0,13.318,4.915,13.1,15.667V71.38l.214,13.389a.638.638,0,0,1-.641.641h-9.616a.638.638,0,0,1-.641-.641l.214-13.247-.071-9.26c-.071-4.417-2.495-6.552-5.413-6.552" transform="translate(197.489 84.964)" fill="#ad8dd0"></path><path d="M129.446,64.381a.545.545,0,0,1,.569.641C129.09,71.716,122.68,77.7,112.426,77.7c-12.25,0-18.874-8.047-18.874-19.158,0-11.681,6.976-19.372,18.66-19.372,12.033,0,18.731,7.976,18.941,20.8a.637.637,0,0,1-.637.641H104.3c.427,6.908,3.132,9.972,8.264,9.972,3.559,0,6.125-1.637,7.122-5.556a.834.834,0,0,1,.783-.641ZM112.284,46.219c-4.274,0-6.84,2.563-7.694,7.62h15.03c-.427-3.918-2.634-7.62-7.335-7.62" transform="translate(223.558 93.6)" fill="#ad8dd0"></path><path d="M106.11,85.41a.638.638,0,0,1-.641-.641l.285-24.287L105.469,36.2a.638.638,0,0,1,.641-.641h9.328a.638.638,0,0,1,.641.641l-.285,24.287.285,24.287a.638.638,0,0,1-.641.641Z" transform="translate(252.032 84.964)" fill="#ad8dd0"></path><path d="M110.418,85.41a.638.638,0,0,1-.641-.641l.285-24.287L109.777,36.2a.638.638,0,0,1,.641-.641h9.328a.638.638,0,0,1,.641.641L120.1,60.482l.285,24.287a.638.638,0,0,1-.641.641Z" transform="translate(262.327 84.964)" fill="#ad8dd0"></path><path d="M132.622,77.7c-11.965,0-18.874-7.478-18.874-19.158s6.908-19.372,18.874-19.372,18.731,7.478,18.731,19.158S144.588,77.7,132.622,77.7m0-7.122c5.271,0,7.762-3.63,7.762-12.037,0-8.261-2.563-12.25-7.833-12.25-5.413.071-7.908,4.061-7.908,12.321s2.637,11.965,7.979,11.965" transform="translate(271.819 93.6)" fill="#ad8dd0"></path><path d="M273.447,26.226c-22.646,0-22.646-7.417-45.292-7.417s-22.653,7.417-45.306,7.417-22.66-7.417-45.323-7.417-22.653,7.417-45.306,7.417c-22.67,0-22.67-7.417-45.336-7.417s-22.67,7.417-45.34,7.417" transform="translate(3.69 44.947)" fill="none" stroke="#fff" stroke-miterlimit="10" stroke-width="5"></path><path d="M32.2,40.566a.834.834,0,0,1-.783-.641l-5.773-26.92-4.983,26.92a.834.834,0,0,1-.783.641H8.628a.841.841,0,0,1-.786-.641L.011,4.528a.528.528,0,0,1,.495-.641H9.98a.7.7,0,0,1,.712.641l4.132,27,5.057-27a.834.834,0,0,1,.783-.641H32.274a.837.837,0,0,1,.783.641l4.844,26.5,4.342-26.5a.7.7,0,0,1,.715-.641h8.616a.5.5,0,0,1,.5.641l-7.766,35.4a.83.83,0,0,1-.78.641Z" transform="translate(-0.001 9.289)" fill="#f2d1a1"></path><path d="M51.47,28.826a.545.545,0,0,1,.569.641C51.114,36.161,44.7,42.144,34.45,42.144c-12.25,0-18.873-8.047-18.873-19.158,0-11.681,6.976-19.372,18.66-19.372,12.033,0,18.731,7.976,18.941,20.8a.637.637,0,0,1-.637.641H26.329c.427,6.908,3.132,9.972,8.264,9.972,3.559,0,6.125-1.637,7.122-5.556a.834.834,0,0,1,.783-.641ZM34.308,10.664c-4.274,0-6.84,2.563-7.694,7.62h15.03c-.427-3.918-2.634-7.62-7.335-7.62" transform="translate(37.223 8.636)" fill="#f2d1a1"></path><path d="M28.131,49.855a.637.637,0,0,1-.637-.641l.285-24.287L27.494.641A.637.637,0,0,1,28.131,0h9.332A.64.64,0,0,1,38.1.641l-.288,24.287L38.1,49.214a.64.64,0,0,1-.641.641Z" transform="translate(65.701 0)" fill="#f2d1a1"></path><path d="M50.2,42.144c-11.755,0-18.731-7.478-18.731-19.158S38.442,3.614,50.407,3.614c9.4,0,15.531,5.342,16.385,13.318a.548.548,0,0,1-.569.641H57.6a.757.757,0,0,1-.712-.641c-.854-4.129-3.42-6.125-6.484-6.125-5.41.071-7.976,3.99-7.976,12.108,0,8.406,2.634,12.037,7.976,12.108,3.634.071,6.342-2.491,6.769-7.264a.757.757,0,0,1,.712-.641h8.83a.545.545,0,0,1,.569.641C66.508,36.09,59.81,42.144,50.2,42.144" transform="translate(75.192 8.636)" fill="#f2d1a1"></path><path d="M61.351,42.144c-11.965,0-18.873-7.478-18.873-19.158S49.386,3.614,61.351,3.614s18.728,7.478,18.728,19.158S73.314,42.144,61.351,42.144m0-7.122c5.271,0,7.762-3.63,7.762-12.037,0-8.261-2.566-12.25-7.833-12.25-5.413.071-7.908,4.061-7.908,12.321s2.637,11.965,7.979,11.965" transform="translate(101.507 8.636)" fill="#f2d1a1"></path><path d="M65.155,27.993l.214,12.535a.638.638,0,0,1-.641.641H54.973a.638.638,0,0,1-.641-.641l.214-12.535L54.474,5.13a.638.638,0,0,1,.641-.641h9.118a.637.637,0,0,1,.637.641l-.21,3.99A12.114,12.114,0,0,1,75.2,3.635c5.129,0,8.762,2.207,10.471,6.911C88.8,4.987,92.5,3.635,96.852,3.635c7.406,0,11.681,4.488,11.681,14.247V27.993l.142,12.535a.641.641,0,0,1-.644.641H98.418a.638.638,0,0,1-.641-.641l.214-12.535V18.024c0-4.417-1.783-6.556-4.7-6.556s-6.481,3.918-6.481,11.4v5.129l.214,12.535a.638.638,0,0,1-.641.641H76.768a.639.639,0,0,1-.644-.641l.214-12.535V18.024c0-4.417-1.708-6.556-4.7-6.556s-6.481,3.918-6.481,11.4Z" transform="translate(129.834 8.687)" fill="#f2d1a1"></path><path d="M106.891,28.826a.542.542,0,0,1,.569.641c-.922,6.695-7.335,12.677-17.589,12.677C77.621,42.144,71,34.1,71,22.986c0-11.681,6.979-19.372,18.66-19.372,12.037,0,18.731,7.976,18.945,20.8a.638.638,0,0,1-.641.641H81.75c.427,6.908,3.135,9.972,8.264,9.972,3.562,0,6.125-1.637,7.125-5.556a.83.83,0,0,1,.78-.641ZM89.729,10.664c-4.274,0-6.837,2.563-7.694,7.62h15.03c-.427-3.918-2.634-7.62-7.335-7.62" transform="translate(169.659 8.636)" fill="#f2d1a1"></path></g></g></svg>