<?xml version="1.0" encoding="UTF-8"?><svg id="Layer_1" xmlns="http://www.w3.org/2000/svg" viewBox="0 0 800 176"><defs><style>.cls-1{fill:none;}.cls-1,.cls-2{stroke-width:0px;}.cls-2{fill:#111;}</style></defs><rect class="cls-1" x="0" y="0" width="799.17" height="176"/><path class="cls-2" d="m265.37,50.95v-21.73h53.46v80.98c0,16.67-4.24,29.17-12.71,37.5-8.47,8.34-19.33,12.5-32.59,12.5-16.68,0-30.88-5.87-42.64-17.63l13.74-19.06c9.29,8.88,18.37,13.32,27.26,13.32,6.28,0,11.65-2.12,16.09-6.35,4.43-4.24,6.66-10.59,6.66-19.06v-60.48h-29.27Z"/><path class="cls-2" d="m437.41,114.05h-85.48c.55,7.93,4.17,14.32,10.87,19.17,6.69,4.85,14.35,7.27,22.95,7.27,13.66,0,24.05-4.31,31.16-12.91l13.11,14.35c-11.75,12.16-27.05,18.24-45.91,18.24-15.31,0-28.32-5.09-39.05-15.27-10.73-10.18-16.09-23.84-16.09-40.99s5.47-30.78,16.4-40.89c10.93-10.12,23.81-15.17,38.63-15.17s27.43,4.47,37.82,13.42c10.38,8.96,15.58,21.29,15.58,37v15.78Zm-85.48-18.04h62.52c0-9.15-2.87-16.19-8.61-21.11-5.74-4.92-12.81-7.38-21.21-7.38s-15.95,2.56-22.65,7.68c-6.7,5.12-10.05,12.06-10.05,20.8Z"/><path class="cls-2" d="m498.28,158.53h-26.24l-37.71-109.04h23.78l27.05,82.4,27.05-82.4h23.78l27.05,82.4,27.06-82.4h23.77l-37.71,109.04h-26.23l-25.83-74.61-25.83,74.61Z"/><path class="cls-2" d="m720.26,114.05h-85.48c.55,7.93,4.17,14.32,10.87,19.17,6.69,4.85,14.35,7.27,22.95,7.27,13.66,0,24.05-4.31,31.16-12.91l13.11,14.35c-11.75,12.16-27.05,18.24-45.91,18.24-15.31,0-28.32-5.09-39.05-15.27-10.73-10.18-16.09-23.84-16.09-40.99s5.47-30.78,16.4-40.89c10.93-10.12,23.81-15.17,38.63-15.17s27.43,4.47,37.82,13.42c10.38,8.96,15.58,21.29,15.58,37v15.78Zm-85.48-18.04h62.52c0-9.15-2.87-16.19-8.61-21.11-5.74-4.92-12.81-7.38-21.21-7.38s-15.95,2.56-22.65,7.68c-6.7,5.12-10.05,12.06-10.05,20.8Z"/><path class="cls-2" d="m755.21,158.53h-22.95V29.24h22.95v129.29Z"/><path class="cls-2" d="m796,158.53h-22.95V29.24h22.95v129.29Z"/><path class="cls-2" d="m155.81,139.91c0,7.32-5.81,13.24-13.13,13.24h-21.21v21.53h21.21c19.16,0,34.67-15.61,34.67-34.78v-48.34h-21.53v48.34ZM4,1.24v173.45h87.49v-21.53H25.54V22.77h130.27v38.83h21.53V1.24H4Z"/></svg>