<svg xmlns="http://www.w3.org/2000/svg" xmlns:xlink="http://www.w3.org/1999/xlink" id="Layer_1" x="0px" y="0px" viewBox="0 0 800 360.5" style="enable-background:new 0 0 800 360.5;" xml:space="preserve"><style type="text/css">	.st0{fill:#FFFFFF;}</style><path class="st0" d="M705.9,10.3c45,0.1,81.5,36.5,81.5,81.5v107.5c0,45-36.5,81.5-81.5,81.5H84.2c-0.3,0-0.5-0.2-0.5-0.5 c0,0,0,0,0,0V91.9c0-45,36.5-81.5,81.5-81.5H705.9 M705.9,1.8H165.2c-49.7,0-90.1,40.3-90.1,90.1v188.5c0,5,4.1,9.1,9.1,9.1h621.7 c49.7,0,90.1-40.3,90.1-90.1V91.9C796,42.1,755.7,1.8,705.9,1.8z"></path><path class="st0" d="M41.9,291.4c16.2,0,29.4,13.2,29.4,29.4c0,16.2-13.2,29.4-29.4,29.4S12.5,337,12.5,320.8l0,0 C12.6,304.5,25.7,291.4,41.9,291.4 M41.9,282.8c-21,0-37.9,17-37.9,37.9s17,37.9,37.9,37.9s37.9-17,37.9-37.9S62.9,282.8,41.9,282.8 L41.9,282.8z"></path><path class="st0" d="M189.8,206h-29.7c-0.5,0-0.9-0.4-0.9-0.9c0,0,0,0,0,0l0.5-33.1l-0.5-33.1c0-0.5,0.4-0.9,0.9-0.9c0,0,0,0,0,0 h29.2c13.9,0,24.2,5.1,24.2,16.8c0,8.3-4.4,12.9-11.7,15.1c9,2.1,13.5,8.1,13.5,15.5C215.4,200.2,202.8,206,189.8,206z M173.9,165.4 h15.6c5.7,0,9.2-2.9,9.2-8.4c0-6-4.2-8.6-9.2-8.6h-15.2L173.9,165.4z M174.3,195.7h15.2c6.1,0,10.9-2.3,10.9-10.3 c0-7.2-5-9.7-10.9-9.7h-15.6L174.3,195.7z"></path><path class="st0" d="M246.6,207.5c-18.1,0-27.6-9.4-27.6-26.7l0.1-18.5l-0.4-23.4c0-0.5,0.4-0.9,0.9-0.9c0,0,0,0,0,0h13.7 c0.5,0,0.9,0.4,0.9,0.9c0,0,0,0,0,0l-0.3,23v18.8c0,9.7,3.9,15.1,12.7,15.1c9.5,0,13.7-5.3,13.7-15.1v-18.4l-0.3-23.3 c0-0.5,0.4-0.9,0.9-0.9c0,0,0,0,0,0h12.2c0.5,0,0.9,0.4,0.9,0.9c0,0,0,0,0,0l-0.3,23.4v18.5C273.8,198.1,264.7,207.5,246.6,207.5z"></path><path class="st0" d="M313.4,205.2c0,0.5-0.4,0.9-0.9,0.9c0,0,0,0,0,0h-13.3c-0.5,0-0.9-0.4-0.9-0.9c0,0,0,0,0,0l0.3-21.6l-22.9-44.8 c-0.1-0.3,0-0.6,0.2-0.7c0.1,0,0.2-0.1,0.2-0.1h15.1c0.5,0,1,0.3,1.3,0.8l13.8,31.3l14.1-31.3c0.2-0.5,0.7-0.8,1.3-0.8h13.8 c0.3,0,0.5,0.2,0.5,0.5c0,0.1,0,0.2-0.1,0.3l-22.9,44.8L313.4,205.2z"></path><path class="st0" d="M162,106.9h-3.4l14.9-36h2.7l14.9,36h-3.6l-4.3-10.4h-16.9L162,106.9z M174.7,75.8l-7.2,17.7h14.5L174.7,75.8z"></path><path class="st0" d="M213.4,106.9l-0.2-3.7c-1.6,3.1-5.3,4.5-8.3,4.5c-5.8,0-10.2-4.7-10.2-11.1s4.4-11,10.2-11c2.9,0,6.4,1.3,8,4.1 V70.9h3.1v36H213.4z M197.8,96.6c0,5.3,3.5,8.5,7.7,8.5s7.7-3.1,7.7-8.5s-3.7-8.4-7.7-8.4S197.8,91.3,197.8,96.6z"></path><path class="st0" d="M241.2,106.9l-0.2-3.7c-1.6,3.1-5.3,4.5-8.3,4.5c-5.8,0-10.2-4.7-10.2-11.1s4.4-11,10.2-11 c2.9,0,6.6,1.3,8.3,4.5l0.2-3.7h2.6v20.5L241.2,106.9z M225.6,96.6c0,5.3,3.6,8.5,7.7,8.5s7.7-3.1,7.7-8.5s-3.6-8.4-7.7-8.4 S225.6,91.3,225.6,96.6z"></path><path class="st0" d="M280.8,106.9v-12c0-4.9-1.8-6.5-5-6.5c-3.4,0-6.6,3.4-6.6,7v11.4h-3.1v-12c0-4.9-1.7-6.5-5-6.5s-6.6,3.4-6.6,7 v11.4h-3V86.4h2.7l0.2,3.8c1.5-2.8,4.4-4.6,7.5-4.6c4,0,5.9,2,6.8,4.8c1.5-2.9,4.5-4.7,7.8-4.8c5,0,7.3,3.2,7.3,8.9v12.3 L280.8,106.9z"></path><path class="st0" d="M305.5,70.9v15.6H327V70.9h3.3v36H327V89.4h-21.5v17.4h-3.3v-36H305.5z"></path><path class="st0" d="M355.8,106.9l-0.2-3.7c-1.6,3.1-5.3,4.5-8.3,4.5c-5.8,0-10.2-4.7-10.2-11.1s4.4-11,10.2-11 c2.9,0,6.6,1.3,8.3,4.5l0.2-3.7h2.6v20.5L355.8,106.9z M340.2,96.6c0,5.3,3.5,8.5,7.7,8.5s7.7-3.1,7.7-8.5s-3.7-8.4-7.7-8.4 S340.2,91.3,340.2,96.6z"></path><path class="st0" d="M366.1,106.9v-36h3v36H366.1z"></path><path class="st0" d="M376.8,106.9v-36h3.1v36H376.8z"></path><path class="st0" d="M568,207.5c-20.9,0-33.8-14.5-33.8-35.2c0-21.7,13.2-35.8,33.7-35.8c14.7,0,26.5,6,30.4,24.2 c0.1,0.4-0.1,0.7-0.5,0.8c-0.1,0-0.1,0-0.2,0h-12.8c-0.5,0-0.9-0.4-1.1-0.9c-1.9-8.2-7.3-12.8-16.1-12.8c-11.8,0-18.3,9.1-18.3,24.3 s6.6,23.9,18.2,23.9c9.5,0,14.7-5.1,16.4-14.4c0.1-0.5,0.6-0.9,1.1-0.9h13c0.4,0,0.7,0.3,0.7,0.7c0,0.1,0,0.1,0,0.2 C595.1,200.3,583.9,207.5,568,207.5z"></path><path class="st0" d="M648,206c-0.5,0-1-0.4-1.2-0.9l-5.2-16.4h-25.5l-5,16.4c-0.2,0.5-0.6,0.8-1.2,0.9h-13.4c-0.3,0-0.6-0.2-0.6-0.5 c0-0.1,0-0.2,0.1-0.3l23-66.3c0.2-0.5,0.6-0.8,1.2-0.9h18.2c0.5,0,1,0.4,1.2,0.9l22.5,66.3c0.2,0.3,0.1,0.6-0.2,0.8 c-0.1,0.1-0.2,0.1-0.3,0.1H648z M637.9,177l-9.3-29l-8.8,29H637.9z"></path><path class="st0" d="M695.2,190.9l-6.7-10.1h-9.7l0.3,24.4c0,0.5-0.4,0.9-0.9,0.9c0,0,0,0,0,0h-13.3c-0.5,0-0.9-0.4-0.9-0.9 c0,0,0,0,0,0l0.4-33.1l-0.4-33.1c0-0.5,0.4-0.9,0.9-0.9c0,0,0,0,0,0h27.6c17,0,26.8,7.2,26.8,21.4c0,10-5.5,16.9-15.2,19.8l16.9,26 c0.2,0.4,0,0.8-0.4,0.8h-15.4c-0.6,0-1.1-0.3-1.4-0.8L695.2,190.9z M693.1,148.8H679l-0.3,21.2h14.8c6.2,0,11.6-2.9,11.6-10.3 S700.7,148.8,693.1,148.8z"></path><path class="st0" d="M341.4,207.1c-0.5,0-1.1-0.1-1.6-0.2c-1.9-0.4-3.5-1.7-4.3-3.4c-1.2-2.4-3.6-7.4,22.9-61.8 c1.3-2.8,4.6-4.1,7.4-2.9c2.8,1.3,4.1,4.6,2.9,7.4c-0.1,0.1-0.1,0.3-0.2,0.4c-5.2,10.7-10.6,22.4-14.8,32.3l0.8-1 c28-35,39.6-46.9,48.6-43.6c3,1.1,5.3,3.3,6.6,6.1c2.6,5.8,1.5,14.1-1.7,24.2c7.9-6,15.7-9.9,21-7.8c9.3,3.6,9.2,15.3,9.1,23 c0,1.7,0,4,0.1,5.4c3.4,0.9,9.6-2.9,13.4-7.4c1.9-2.4,5.5-2.8,7.9-0.9c2.4,1.9,2.8,5.5,0.9,7.9c-0.1,0.1-0.1,0.2-0.2,0.2 c-6.4,7.5-19.4,16-29.4,8.8c-4-2.8-3.9-8.1-3.8-14.2c0-3.6,0.1-11-1.7-12.3c-3.9,0.5-15.9,9.8-26.1,20.4c-2.1,2.2-5.7,2.3-7.9,0.2 c-1.6-1.6-2.2-4-1.4-6.1l1.3-3.4c7.4-19.2,10.2-30.5,8.5-33.4c-7,2.9-26.7,27.6-36.4,39.7C348.8,203,345.3,207.1,341.4,207.1z"></path><path class="st0" d="M464.8,246.2h-0.2c-13.9-0.2-16.6-8.7-17.1-11.3c-2.8-14.8,17.1-32.9,45-49.2c1.3-4,2.5-8.2,3.6-12.4 c-9.8,11.4-19.8,18.1-29.7,19.7c-8.4,1.4-12-2.6-13.5-5.1c-7.8-13.4,15.3-45.6,15.5-45.9c2-2.4,5.5-2.7,7.9-0.8 c2.4,1.9,2.7,5.4,0.8,7.8c-6.2,7.7-16.2,28.1-14.6,33c0.7,0.1,1.4,0,2.1-0.1c12.1-1.9,25.9-15.9,38.9-39.4c1.4-2.7,4.8-3.8,7.6-2.4 c2.2,1.2,3.4,3.7,2.9,6.1c-0.1,0.8-2.9,14.7-7.6,32c10.6-5.5,21.9-10.7,33.3-15.3c2.8-1.3,6.1,0,7.4,2.8s0,6.1-2.8,7.4 c-0.1,0.1-0.3,0.1-0.4,0.2c-14.4,5.7-28.4,12.3-41.9,19.8c-0.2,0.5-0.4,1.1-0.5,1.6C490.1,229.3,478.2,246.2,464.8,246.2z  M487,202.2c-21.9,14.6-29.2,26.1-28.4,30.6c0.3,1.5,3.5,2.1,6.2,2.2h0.1C471.6,235,479.7,221.4,487,202.2L487,202.2z M462.7,182.2 L462.7,182.2z"></path><path class="st0" d="M379.5,236.5c-12.8,0-24.6-3.1-30.8-9c-2.3-2-2.6-5.6-0.5-7.9c2-2.3,5.6-2.6,7.9-0.5c0.1,0.1,0.2,0.2,0.3,0.3 c9.5,9,45.4,8.8,60.1-6.5c2.1-2.2,5.7-2.3,7.9-0.2c2.2,2.1,2.3,5.7,0.2,7.9l0,0C414.3,231.4,396.1,236.5,379.5,236.5z"></path></svg>