<svg xmlns="http://www.w3.org/2000/svg" width="129.769" height="61.092" viewBox="0 0 129.769 61.092"><g transform="translate(-2 -1.037)"><path d="M190.84,27.37c1.773-.443,2.148-.2,3.512-.477a4.442,4.442,0,0,0,1.739-1.364c.136-.307-2.285.239-4.842.989a18.711,18.711,0,0,1-2.66.614c.511-1.33.955-2.557,1.432-3.717.58-1.364,1.262-2.728,1.91-4.058s1.159-2.8,1.944-4.092c1.091-1.875,2.319-3.683,3.478-5.524.2-.2.443-.477.409-.682A4.423,4.423,0,0,0,197.49,7.9a4.462,4.462,0,0,0-.955.307,2.841,2.841,0,0,0-.887,1.023c-.887,1.5-1.875,3.035-2.626,4.637-1.193,2.387-2.251,4.774-3.342,7.195-.784,1.807-1.569,3.614-2.251,5.456a2.831,2.831,0,0,1-2.216,1.773c-2.592.614-5.149,1.262-7.74,1.91-3.717.989-7.468,1.944-11.15,2.932l-1.125.1c.307-.58.511-.989.682-1.364,1.4-3.41,2.694-6.786,4.16-10.127a23.444,23.444,0,0,0,1.3-4.058,5.078,5.078,0,0,0,.068-2.148,1.342,1.342,0,0,0-1.7-1.159,5.65,5.65,0,0,0-1.3.375,13.919,13.919,0,0,0-4.637,3.546,17.461,17.461,0,0,0-1.159,1.5c-.239.409-.682.955-.068,1.33s.852-.273,1.091-.648a15.317,15.317,0,0,1,4.876-4.365,7.156,7.156,0,0,1,1.569-.477,6.821,6.821,0,0,1-.034,1.7c-.546,1.807-1.125,3.683-1.807,5.456-.58,1.6-1.3,3.137-1.978,4.672-.818,1.91-1.671,3.751-2.523,5.626A1.712,1.712,0,0,1,162.3,34.19c-.784.136-1.534.273-2.285.477-2.489.682-5.013,1.364-7.57,2.012-2.387.546-4.808,1.057-7.229,1.637a1.188,1.188,0,0,0-.716.614c0,.546.511.546.921.511a1,1,0,0,0,.307-.068,122.6,122.6,0,0,1,14.185-1.432,5.318,5.318,0,0,1,1.466.1,1.325,1.325,0,0,1,0,.375c-1.159,2.83-2.319,5.694-3.546,8.559-.955,2.251-1.91,4.535-2.762,6.854-1.193,3.239-2.319,6.445-3.376,9.684a7.209,7.209,0,0,0-.171,2.557c-.034.17.511.375.784.58a4.065,4.065,0,0,0,.273-.682,13.543,13.543,0,0,1,.443-2.66c1.3-3.819,2.626-7.638,4.058-11.355.955-2.489,2.012-4.876,3.035-7.331.955-2.216,1.875-4.467,2.864-6.752,1.978.2,3.887.341,5.8.682a30.389,30.389,0,0,1,4.126,1.3,11.352,11.352,0,0,1,6.479,5.626,3.472,3.472,0,0,1,.307,2.9c-.546,1.841-1.023,3.683-1.5,5.558a5.049,5.049,0,0,0-.2,1.6,1.077,1.077,0,0,0,.443.75c.1.068.546-.136.648-.307a19.594,19.594,0,0,0,1.4-2.967,12.224,12.224,0,0,0,.852-5.524,2.907,2.907,0,0,1,.1-.784c.682-2.012,1.33-3.99,2.046-6,.614-1.773,1.193-3.478,1.875-5.285.784-2.182,1.637-4.433,2.489-6.683a1.986,1.986,0,0,1,.887-.784C189.442,27.745,190.158,27.575,190.84,27.37Zm-28.779,9.445c-2.08.068-7.57.443-6.956.273l1.091-.307c2.182-.648,4.262-1.125,6.445-1.773l.2.2A13.931,13.931,0,0,0,162.061,36.816Zm18.652,8.252a12.181,12.181,0,0,1-1.023-1.3c-1.978-3.035-4.91-4.637-8.252-5.66a29.654,29.654,0,0,0-6.888-1.125c-.273-.034-.546-.1-.887-.17a11.831,11.831,0,0,1,.921-2.012,2.139,2.139,0,0,1,1.159-.614c3.035-.818,6.1-1.637,9.173-2.421,2.8-.784,5.524-1.534,8.32-2.285.989-.273,2.012-.443,3.205-.682Z" transform="translate(-93.909 -4.523)" fill="#fff"></path><path d="M310.631,26.128a1.405,1.405,0,0,0-.75.955c-.614,1.364-1.159,2.728-1.875,4.024a23.517,23.517,0,0,1-2.148,2.967,8.611,8.611,0,0,1-1.4,1.33c-.341.239-.682.477-1.023.682a2.526,2.526,0,0,1-2.8,0,3.784,3.784,0,0,1-1.228-2.387,25.428,25.428,0,0,1-.136-3.955,1.6,1.6,0,0,1,.477-1.125c.341-.341.75-.614,1.125-.955a18.763,18.763,0,0,0,2.932-3c.341-.477.716-.852,1.091-1.33a24.393,24.393,0,0,0,1.637-2.08,23.188,23.188,0,0,0,1.6-2.83,19.761,19.761,0,0,0,1.841-5.149,11.872,11.872,0,0,0,.136-2.455,1.91,1.91,0,0,0-2.9-1.4,7.616,7.616,0,0,0-1.637,1.3,22.222,22.222,0,0,0-4.194,6.274,34.292,34.292,0,0,0-1.671,4.535,18.907,18.907,0,0,0-.477,1.875c-.17.716-.375,1.4-.546,2.114q-.256,1.023-.409,2.046a1.877,1.877,0,0,1-.409,1.193c-.477.511-.409.75.17,1.125l.034.273a35.23,35.23,0,0,1-1.534,3.239,23.517,23.517,0,0,1-2.148,2.967,8.606,8.606,0,0,1-1.4,1.33c-.341.239-.682.477-1.023.682a2.526,2.526,0,0,1-2.8,0,3.784,3.784,0,0,1-1.228-2.387,23.847,23.847,0,0,1-.136-3.819c.171-.239.307-.511.477-.75a.855.855,0,0,0,.17-.648c.307-.273.648-.511.921-.784a18.762,18.762,0,0,0,2.932-3c.341-.477.716-.852,1.091-1.33a24.405,24.405,0,0,0,1.637-2.08,23.18,23.18,0,0,0,1.6-2.83,19.757,19.757,0,0,0,1.841-5.149,11.873,11.873,0,0,0,.136-2.455,1.91,1.91,0,0,0-2.9-1.4,7.617,7.617,0,0,0-1.637,1.3,22.221,22.221,0,0,0-4.194,6.274,34.292,34.292,0,0,0-1.671,4.535,18.889,18.889,0,0,0-.477,1.875c-.171.716-.375,1.4-.546,2.114q-.256,1.023-.409,2.046a1.816,1.816,0,0,1-.443,1.228c-.477.511-.409.75.171,1.125l.034.273a.9.9,0,0,0-.17.2c-.955.955-1.841,1.841-2.864,2.728a5.341,5.341,0,0,1-1.5.955,1.975,1.975,0,0,1-1.4,0,1.7,1.7,0,0,1-.818-1.807,8.057,8.057,0,0,1,.273-1.534c.1-.443.1-.75-.375-.955-.171-.068-.273-.307-.375-.477a1.591,1.591,0,0,0-2.216-.58.258.258,0,0,1-.136.068A7.069,7.069,0,0,0,275,33.153a7.15,7.15,0,0,0-1.364,3.069,4.2,4.2,0,0,0,.1,1.6.872.872,0,0,0,1.057.648h.034a3.7,3.7,0,0,0,1.262-.648c.546-.511,1.057-1.057,1.534-1.6.375-.375.75-.75,1.193-1.159a3.727,3.727,0,0,1,.171.58,2.35,2.35,0,0,0,2.694,1.91h.034a6.072,6.072,0,0,0,2.66-1.4c.818-.818,1.6-1.7,2.387-2.592.034.648.1,1.3.136,1.944a5.612,5.612,0,0,0,1.193,3.069,3.384,3.384,0,0,0,4.092.955,6.271,6.271,0,0,0,2.387-1.7,15.746,15.746,0,0,0,2.114-2.66,29.305,29.305,0,0,0,1.637-3.273c.034.443.068.852.068,1.262a5.611,5.611,0,0,0,1.193,3.069,3.384,3.384,0,0,0,4.092.955,6.271,6.271,0,0,0,2.387-1.7,15.752,15.752,0,0,0,2.114-2.66,29.688,29.688,0,0,0,2.557-5.729C310.631,26.81,310.9,26.5,310.631,26.128ZM301.288,20.5a28.042,28.042,0,0,1,3.41-6.956,5.68,5.68,0,0,1,1.978-2.148c.375-.2.477-.716.989-.852.341-.1.75-.375.989-.068a1.909,1.909,0,0,1,.443,1.193,15.92,15.92,0,0,1-1.3,4.842,20.712,20.712,0,0,1-2.012,3.853c-.716,1.057-1.5,2.08-2.319,3.069-.546.682-1.159,1.262-1.739,1.875-.511.546-1.057,1.057-1.6,1.569a4.024,4.024,0,0,1-.614.443A37.663,37.663,0,0,1,301.288,20.5Zm-26.6,17.049c-.341-.58-.068-1.023.034-1.432a8.15,8.15,0,0,1,2.08-3.444,4.987,4.987,0,0,1,.648-.546.807.807,0,0,1,1.091.375.033.033,0,0,0,.034.034,3.6,3.6,0,0,1,.171.648,19.015,19.015,0,0,1-4.058,4.365Zm15.072-14.662a28.043,28.043,0,0,1,3.41-6.956,5.442,5.442,0,0,1,1.978-2.148c.375-.2.477-.716.989-.852.341-.1.75-.375.989-.068a1.891,1.891,0,0,1,.443,1.159,15.918,15.918,0,0,1-1.3,4.842,20.712,20.712,0,0,1-2.012,3.853c-.716,1.057-1.5,2.08-2.319,3.069-.546.682-1.159,1.262-1.739,1.875-.511.546-1.057,1.057-1.6,1.569a4.021,4.021,0,0,1-.614.443,44.86,44.86,0,0,1,1.773-6.786Z" transform="translate(-178.988 -5.361)" fill="#fff"></path><path d="M24.539,48.66c-.409.784-.682,1.33-.955,1.91a.387.387,0,0,1-.273-.1c-1.262-1.978-.648-8.661-.58-14.083.034-1.057,1.228-2.046,1.193-2.353a.222.222,0,0,0,.068-.307.033.033,0,0,0-.034-.034c-.273-.17-.614-.307-.989-.511.341-2.114.614-4.228.955-6.376.136-.852.307-1.671.477-2.489.511-2.9,1.023-5.8,1.569-8.763.409-2.216.852-4.433,1.228-6.717.239-1.671.375-3.444.511-5.217a4.085,4.085,0,0,0-.239-1.569c-.307-1.023-1.057-1.262-1.978-.75a2.716,2.716,0,0,0-.58.511,41.094,41.094,0,0,0-2.9,3.887c-1.841,3.069-3.649,6.172-5.319,9.343-1.841,3.444-3.546,6.99-5.183,10.537-.989,2.114-1.739,4.3-2.557,6.479-.648,1.671-1.228,3.41-1.773,5.115a2.212,2.212,0,0,1-1.671,1.637,11.514,11.514,0,0,0-2.592,1.3,2.029,2.029,0,0,0-.818.955,1.012,1.012,0,0,0,0,.887,1.062,1.062,0,0,0,.887.307,6.1,6.1,0,0,0,1.091-.443c.068-1.33.511-1.637,2.114-1.671-.443,1.91-.887,3.785-1.262,5.66-.341,1.807-.58,3.649-.784,5.49a4.013,4.013,0,0,0,.239,1.534.728.728,0,0,0,.511.443.751.751,0,0,0,.546-.409c.273-.921.511-1.807.75-2.728.034-.136,0-.409-.068-.443-.75-.546-.477-1.228-.341-1.91.2-.921.307-1.841.546-2.762.375-1.7.75-3.376,1.193-5.047a1.721,1.721,0,0,1,.818-.887c1.944-.682,3.921-1.3,5.9-1.944,1.739-.546,3.512-1.057,5.251-1.569.75-.2,1.534-.307,2.387-.477,0,.409-.034.648-.034.921-.239,5.831-.818,11.832.614,14.765.239.511.614.921,1.125.818a1.592,1.592,0,0,0,.887-.75,4.487,4.487,0,0,0,.409-1.466C24.88,49.24,24.948,47.91,24.539,48.66ZM22.289,31.134c-.068.511-.136,1.023-.17,1.534-.1,1.125-.17,1.193-1.3,1.5-3.273.887-6.513,1.773-9.752,2.694a12.13,12.13,0,0,0-1.4.58c-.375.136-.784.2-1.5.409.546-1.671.955-3.035,1.5-4.365,1.5-3.819,2.967-7.638,4.672-11.389,1.5-3.308,3.239-6.513,5.013-9.684,1.432-2.626,3.035-5.149,4.6-7.706A7.26,7.26,0,0,1,26.278,2.15a2.788,2.788,0,0,1,.375,1.841A56.425,56.425,0,0,1,25.63,11.9c-.273,1.466-.511,3-.784,4.467-.341,1.807-.75,3.58-1.023,5.354C23.278,24.893,22.766,28,22.289,31.134Z" transform="translate(0 0)" fill="#fff"></path><path d="M80.447,53.416a8.2,8.2,0,0,1,1.262-3.649c.852-1.3,1.6-2.66,2.353-4.024.477-.852.989-1.739,1.4-2.66a2.829,2.829,0,0,0,.239-1.3.77.77,0,0,0-1.228-.648,3.927,3.927,0,0,0-1.262,1.33A15.586,15.586,0,0,0,81.4,46.085c-.341,1.023-.648,2.08-.921,3.1a12.382,12.382,0,0,1-1.739,3.649,3.075,3.075,0,0,1-.307.341,5.031,5.031,0,0,0-1.023-.887,1.732,1.732,0,0,0-1.091-.17,5.48,5.48,0,0,0-3.342,3.273,17.366,17.366,0,0,0-1.159,2.864c-.239,1.023-.341,2.046-.546,3.035a1.269,1.269,0,0,0,.068.614c.136.546.852,1.023,1.228.818A4.882,4.882,0,0,0,74,61.668a12.479,12.479,0,0,0,1.3-1.7c.716-1.057,1.432-2.148,2.148-3.205.58-.887,1.125-1.807,1.773-2.83,0,.375-.034.58-.034.75-.068,1.023-.136,2.046-.2,3.035-.068,1.33-.136,2.694-.136,4.058a11.649,11.649,0,0,0,.307,2.148A.873.873,0,0,0,80,64.6c.341.034.511-.2.341-.477A4.065,4.065,0,0,1,79.9,61.94c0-1.228.068-2.421.068-3.649A38.7,38.7,0,0,1,80.447,53.416ZM84.607,42.2l.17.068a2.263,2.263,0,0,1-.2.682c-.784,1.4-1.6,2.83-2.421,4.228A11.04,11.04,0,0,1,84.607,42.2ZM77.071,55.5c-.648.921-1.193,1.978-1.807,2.9a31.429,31.429,0,0,1-2.114,2.66,5.679,5.679,0,0,1-.955.614c.068-.443.034-.682.1-.921a19.045,19.045,0,0,1,1.364-4.5,8.259,8.259,0,0,1,2.285-2.8c.375-.307.716-.068,1.159-.136a2.091,2.091,0,0,1-.034,2.182Z" transform="translate(-45.644 -26.34)" fill="#fff"></path><path d="M133.794,61.54a2.937,2.937,0,0,0-.921,1.023,4.315,4.315,0,0,1-1.432,1.4c-.818.443-1.637.921-2.455,1.364a6.144,6.144,0,0,1-.716.273.548.548,0,0,1-.716-.2.033.033,0,0,0-.034-.034,3.883,3.883,0,0,1-.614-1.5,3.671,3.671,0,0,0-1.159-2.626,1.154,1.154,0,0,0-1.125-.307,6.86,6.86,0,0,0-3.308,2.489l-1.432,1.7a1.9,1.9,0,0,1-.307-.58,2.245,2.245,0,0,0-.784-1.3,1.66,1.66,0,0,0-2.148-.17,12.958,12.958,0,0,0-1.262,1.125c-.409.409-.784.818-1.159,1.228.034-.546-.1-1.057.375-1.364s.546-.409.307-.955c-.068-.17-.17-.375-.239-.58s-.136-.477-.409-.477a.6.6,0,0,0-.648.443c-.136.511-.307,1.023-.443,1.534-.171.648-.307,1.262-.443,1.875-.068.307-.17,1.125-.239,1.944-.852.852-1.637,1.637-2.591,2.455a5.341,5.341,0,0,1-1.5.955,1.975,1.975,0,0,1-1.4,0,1.7,1.7,0,0,1-.818-1.807,8.057,8.057,0,0,1,.273-1.534c.1-.443.1-.75-.375-.955-.17-.068-.273-.307-.409-.477a1.623,1.623,0,0,0-2.251-.58.177.177,0,0,1-.136.068,7.4,7.4,0,0,0-1.978,2.012,7.151,7.151,0,0,0-1.364,3.069,4.2,4.2,0,0,0,.1,1.6.847.847,0,0,0,1.057.648h.034a4.426,4.426,0,0,0,1.262-.648c.546-.511,1.057-1.057,1.534-1.6l1.159-1.159a3.724,3.724,0,0,1,.17.58,2.35,2.35,0,0,0,2.694,1.91h.034a6.072,6.072,0,0,0,2.66-1.4c.58-.546,1.125-1.159,1.671-1.773-.034.2-.034.375-.068.477a.548.548,0,0,0,.341.682h.034c.341.136.852.1.887-.239a6.925,6.925,0,0,1,2.353-4.944,4.583,4.583,0,0,1,1.228-1.057.867.867,0,0,1,1.364.477.205.205,0,0,1,.034.136,7.869,7.869,0,0,0,.341.955.949.949,0,0,0,1.7.307c.375-.409.682-.852,1.023-1.3s.58-.818.887-1.159c.375-.375.818-.75,1.228-1.091.887-.818,1.569-.648,1.91.546.171.648.307,1.33.511,1.978a2,2,0,0,0,2.932,1.364,12.223,12.223,0,0,0,3.614-2.557,13.35,13.35,0,0,0,1.262-1.5A.494.494,0,0,0,133.794,61.54Zm-32.7,10.809c-.341-.58-.068-1.023.034-1.432a8.362,8.362,0,0,1,2.08-3.444,4.986,4.986,0,0,1,.648-.546.794.794,0,0,1,1.091.409v.034a3.6,3.6,0,0,1,.17.648A18,18,0,0,1,101.093,72.349Z" transform="translate(-64.517 -39.442)" fill="#fff"></path></g></svg>