<svg xmlns="http://www.w3.org/2000/svg" width="546.241" height="140.509" viewBox="0 0 546.241 140.509"><g transform="translate(-120.941 -334.574)"><g transform="translate(120.941 334.574)"><path d="M324.568,405.361H230.335a35.394,35.394,0,1,1,0-70.787h94.233a35.394,35.394,0,0,1,0,70.787ZM230.335,339.3a30.665,30.665,0,0,0,0,61.329h94.233a30.665,30.665,0,1,0,0-61.329Z" transform="translate(-194.941 -334.574)" fill="#fff"></path><g transform="translate(33.57 13.203)"><path d="M220.226,364.835l.26,11.225a.463.463,0,0,1-.466.463h-7.108a.461.461,0,0,1-.463-.463l.206-11.225v-9.372H209.1a.461.461,0,0,1-.463-.463v-4.532A.461.461,0,0,1,209.1,350h3.554v-1.752c0-6.024,4.223-8.291,8.654-8.291a32.906,32.906,0,0,1,4.787.463.508.508,0,0,1,.463.515v4.48a.385.385,0,0,1-.463.36,11.809,11.809,0,0,0-2.988-.309c-1.7,0-2.882.826-2.882,3.5V350h5.87a.461.461,0,0,1,.463.463V355a.461.461,0,0,1-.463.463h-5.87Z" transform="translate(-208.638 -339.961)" fill="#ad8dd0"></path><g transform="translate(19.625 9.838)"><path d="M217.111,370.7a.462.462,0,0,1-.466-.463l.206-12.823-.206-12.769a.462.462,0,0,1,.466-.463h6.8a.462.462,0,0,1,.466.463l-.206,4.017a10.975,10.975,0,0,1,9.473-4.686,8.477,8.477,0,0,1,1.186.1.6.6,0,0,1,.463.566v4.789a.42.42,0,0,1-.463.412,6.262,6.262,0,0,0-.98-.051c-5.458,0-9.527,3.037-9.473,9.115v11.328a.462.462,0,0,1-.466.463Z" transform="translate(-216.645 -343.975)" fill="#ad8dd0"></path></g><g transform="translate(39.046 9.375)"><path d="M250.524,362.016a.394.394,0,0,1,.412.463c-.669,4.841-5.3,9.164-12.718,9.164-8.863,0-13.649-5.818-13.649-13.853,0-8.443,5.046-14,13.492-14,8.7,0,13.546,5.767,13.7,15.036a.461.461,0,0,1-.463.463H232.343c.311,5,2.267,7.208,5.975,7.208a4.845,4.845,0,0,0,5.149-4.015.605.605,0,0,1,.566-.463Zm-12.411-13.132c-3.088,0-4.944,1.853-5.564,5.51h10.867C243.11,351.56,241.51,348.884,238.113,348.884Z" transform="translate(-224.569 -343.786)" fill="#ad8dd0"></path></g><g transform="translate(67.427 9.375)"><path d="M262.1,362.016a.392.392,0,0,1,.412.463c-.669,4.841-5.3,9.164-12.718,9.164-8.86,0-13.649-5.818-13.649-13.853,0-8.443,5.046-14,13.495-14,8.7,0,13.544,5.767,13.7,15.036a.461.461,0,0,1-.461.463H243.926c.309,5,2.267,7.208,5.975,7.208a4.841,4.841,0,0,0,5.147-4.015.608.608,0,0,1,.569-.463ZM249.7,348.884c-3.091,0-4.943,1.853-5.564,5.51H255C254.69,351.56,253.092,348.884,249.7,348.884Z" transform="translate(-236.149 -343.786)" fill="#ad8dd0"></path></g></g></g><g transform="translate(302.642 421.229)"><g transform="translate(3.056 43.705)"><path d="M601.615,397.911a40.472,40.472,0,0,1-15.86-2.85,40.843,40.843,0,0,0-28.511,0,45.572,45.572,0,0,1-31.722,0,40.852,40.852,0,0,0-28.521,0,45.554,45.554,0,0,1-31.722,0,40.853,40.853,0,0,0-28.521,0,45.559,45.559,0,0,1-31.717,0,40.844,40.844,0,0,0-28.512,0,45.568,45.568,0,0,1-31.727,0,40.878,40.878,0,0,0-28.524,0,45.6,45.6,0,0,1-31.732,0,40.9,40.9,0,0,0-28.546,0,40.538,40.538,0,0,1-15.867,2.848v-4.73a36.073,36.073,0,0,0,14.269-2.569,45.61,45.61,0,0,1,31.742,0,40.888,40.888,0,0,0,28.534,0,45.573,45.573,0,0,1,31.722,0,40.875,40.875,0,0,0,28.529,0,45.552,45.552,0,0,1,31.715,0,40.852,40.852,0,0,0,28.514,0,45.562,45.562,0,0,1,31.725,0,40.859,40.859,0,0,0,28.517,0,45.568,45.568,0,0,1,31.727,0,40.852,40.852,0,0,0,28.514,0,45.555,45.555,0,0,1,31.722,0,36,36,0,0,0,14.255,2.569Z" transform="translate(-240.131 -387.762)" fill="#fff"></path></g><g transform="translate(0 8.858)"><path d="M264.839,391.774a.394.394,0,0,1,.412.463c-.669,4.841-5.306,9.167-12.72,9.167-8.858,0-13.647-5.819-13.647-13.853,0-8.446,5.046-14.007,13.495-14.007,8.7,0,13.541,5.767,13.7,15.036a.461.461,0,0,1-.463.463h-18.95c.309,4.995,2.265,7.211,5.973,7.211a4.846,4.846,0,0,0,5.152-4.017.6.6,0,0,1,.564-.463Zm-12.411-13.132c-3.091,0-4.941,1.853-5.561,5.51h10.865C257.423,381.318,255.827,378.642,252.428,378.642Z" transform="translate(-238.884 -373.544)" fill="#f2d1a1"></path></g><g transform="translate(27.445 9.527)"><path d="M267.964,400.338a.743.743,0,0,1-.672-.412l-4.583-8.757-4.632,8.757a.745.745,0,0,1-.672.412h-7.056a.249.249,0,0,1-.206-.412l7.934-13.6-7.571-12.1c-.1-.206,0-.412.206-.412h7.723a.743.743,0,0,1,.672.412l4.529,8.394,4.122-8.394a.741.741,0,0,1,.667-.412h6.85a.248.248,0,0,1,.206.412l-7.311,12.514,7.774,13.184c.105.206,0,.412-.206.412Z" transform="translate(-250.082 -373.817)" fill="#f2d1a1"></path></g><g transform="translate(54.293 9.012)"><path d="M276.384,401.158a9.535,9.535,0,0,1-7.571-3.245l.1,11.022a.461.461,0,0,1-.466.461H261.5a.461.461,0,0,1-.466-.461l.157-19.056-.157-15.294a.462.462,0,0,1,.466-.463h6.9a.461.461,0,0,1,.461.463l-.152,2.627a9.714,9.714,0,0,1,7.826-3.605c7.522,0,11.485,5.973,11.485,13.7C288.021,394.979,283.592,401.158,276.384,401.158Zm-2.164-5.2c3.914,0,5.921-2.833,5.921-8.24,0-5.87-2.007-8.858-5.767-8.858s-5.767,2.831-5.821,8.343C268.5,392.815,270.511,395.957,274.219,395.957Z" transform="translate(-261.036 -373.607)" fill="#f2d1a1"></path></g><g transform="translate(82.52 8.858)"><path d="M298.508,391.774a.391.391,0,0,1,.409.463c-.667,4.841-5.3,9.167-12.718,9.167-8.858,0-13.647-5.819-13.647-13.853,0-8.446,5.046-14.007,13.495-14.007,8.7,0,13.541,5.767,13.7,15.036a.461.461,0,0,1-.463.463H280.33c.309,4.995,2.265,7.211,5.973,7.211a4.846,4.846,0,0,0,5.152-4.017.6.6,0,0,1,.564-.463ZM286.1,378.642c-3.091,0-4.944,1.853-5.561,5.51H291.4C291.092,381.318,289.5,378.642,286.1,378.642Z" transform="translate(-272.553 -373.544)" fill="#f2d1a1"></path></g><g transform="translate(111.47 9.321)"><path d="M284.828,400.46a.461.461,0,0,1-.463-.463l.206-12.823-.206-12.772a.461.461,0,0,1,.463-.463h6.8a.462.462,0,0,1,.466.463l-.206,4.017a10.976,10.976,0,0,1,9.475-4.686,8.445,8.445,0,0,1,1.184.1.6.6,0,0,1,.463.566v4.789a.42.42,0,0,1-.463.412,6.231,6.231,0,0,0-.978-.051c-5.461,0-9.529,3.039-9.475,9.115V400a.462.462,0,0,1-.466.463Z" transform="translate(-284.365 -373.733)" fill="#f2d1a1"></path></g><g transform="translate(130.632 2.882)"><path d="M309.589,403.292a.763.763,0,0,1-.412.62,15.206,15.206,0,0,1-4.841.875c-4.483,0-8.757-2.267-8.757-8.291l.054-13.286h-2.988a.461.461,0,0,1-.463-.463v-4.532a.461.461,0,0,1,.463-.463h2.988l-.054-6.181a.462.462,0,0,1,.466-.463h6.85a.461.461,0,0,1,.461.463l-.049,6.181h5.87a.461.461,0,0,1,.463.463v4.532a.461.461,0,0,1-.463.463h-5.924l.054,13.081c0,2.267,1.132,2.988,2.831,2.988a9.343,9.343,0,0,0,2.988-.463.385.385,0,0,1,.463.36Z" transform="translate(-292.183 -371.106)" fill="#f2d1a1"></path></g><g transform="translate(157.952 9.527)"><path d="M321.746,399.978a.763.763,0,0,1-.618.412H312.94a.759.759,0,0,1-.618-.412l-8.961-25.749c-.1-.206.052-.412.309-.412h7.414a.721.721,0,0,1,.62.463l5.664,19.568L323.6,374.28a.718.718,0,0,1,.615-.463h6.333a.306.306,0,0,1,.309.412Z" transform="translate(-303.33 -373.817)" fill="#f2d1a1"></path></g><g transform="translate(185.591 9.012)"><path d="M334.281,400.643a.461.461,0,0,1-.463-.463l.1-2.627a9.719,9.719,0,0,1-7.828,3.605c-7.517,0-11.485-5.973-11.485-13.7,0-7.674,4.431-13.853,11.639-13.853a9.519,9.519,0,0,1,7.674,3.348l-.154-2.37a.461.461,0,0,1,.463-.463h6.9a.461.461,0,0,1,.463.463l-.154,12.823.154,12.772a.461.461,0,0,1-.463.463Zm-6.024-4.635c3.76,0,5.767-2.833,5.818-8.446.052-5.664-1.956-8.755-5.664-8.806-3.914-.1-5.924,2.831-5.924,8.291C322.487,393.021,324.548,396.06,328.256,396.008Z" transform="translate(-314.607 -373.607)" fill="#f2d1a1"></path></g><g transform="translate(215.21)"><path d="M327.155,405.978a.461.461,0,0,1-.463-.463l.206-17.561-.206-17.561a.461.461,0,0,1,.463-.463H333.9a.463.463,0,0,1,.463.463l-.208,17.561.208,17.561a.463.463,0,0,1-.463.463Z" transform="translate(-326.692 -369.93)" fill="#f2d1a1"></path></g><g transform="translate(225.306 9.527)"><path d="M340.186,400.956c-5.613,0-9.272-3.811-9.272-10.3v-5.564l-.1-10.813a.462.462,0,0,1,.466-.463h6.9a.461.461,0,0,1,.463.463l-.154,10.813v5.461c0,2.882,1.75,4.738,4.069,4.738,2.779,0,5.767-2.576,5.767-8.24v-1.958l-.1-10.813a.461.461,0,0,1,.463-.463h7a.461.461,0,0,1,.463.463l-.154,12.257.051,13.338a.461.461,0,0,1-.463.463h-6.539a.462.462,0,0,1-.466-.463l.154-2.885A10.705,10.705,0,0,1,340.186,400.956Z" transform="translate(-330.811 -373.817)" fill="#f2d1a1"></path></g><g transform="translate(252.455 9.012)"><path d="M361.559,400.643a.461.461,0,0,1-.463-.463l.1-2.627a9.719,9.719,0,0,1-7.828,3.605c-7.517,0-11.483-5.973-11.483-13.7,0-7.674,4.426-13.853,11.637-13.853a9.526,9.526,0,0,1,7.674,3.348l-.154-2.37a.461.461,0,0,1,.463-.463h6.9a.461.461,0,0,1,.463.463l-.152,12.823.152,12.772a.461.461,0,0,1-.463.463Zm-6.024-4.635c3.757,0,5.767-2.833,5.818-8.446.052-5.664-1.958-8.755-5.664-8.806-3.914-.1-5.924,2.831-5.924,8.291C349.765,393.021,351.824,396.06,355.535,396.008Z" transform="translate(-341.888 -373.607)" fill="#f2d1a1"></path></g><g transform="translate(280.991 2.882)"><path d="M370.937,403.292a.763.763,0,0,1-.412.62,15.219,15.219,0,0,1-4.841.875c-4.48,0-8.755-2.267-8.755-8.291l.049-13.286h-2.985a.461.461,0,0,1-.463-.463v-4.532a.461.461,0,0,1,.463-.463h2.985l-.049-6.181a.461.461,0,0,1,.463-.463h6.848a.462.462,0,0,1,.466.463l-.054,6.181h5.872a.461.461,0,0,1,.463.463v4.532a.461.461,0,0,1-.463.463H364.6l.049,13.081c0,2.267,1.135,2.988,2.836,2.988a9.3,9.3,0,0,0,2.983-.463.386.386,0,0,1,.466.36Z" transform="translate(-353.531 -371.106)" fill="#f2d1a1"></path></g><g transform="translate(300.255)"><path d="M361.854,376.881a.461.461,0,0,1-.463-.463v-6.024a.461.461,0,0,1,.463-.463h6.9a.463.463,0,0,1,.466.463v6.024a.463.463,0,0,1-.466.463Zm0,29.1a.461.461,0,0,1-.463-.463l.154-12.772-.154-12.823a.461.461,0,0,1,.463-.463H368.8a.461.461,0,0,1,.463.463l-.152,12.823.152,12.772a.461.461,0,0,1-.463.463Z" transform="translate(-361.391 -369.93)" fill="#f2d1a1"></path></g><g transform="translate(310.093 8.858)"><path d="M379.054,401.4C370.4,401.4,365.4,396,365.4,387.551s4.995-14.007,13.649-14.007S392.6,378.951,392.6,387.4,387.7,401.4,379.054,401.4Zm0-5.149c3.809,0,5.613-2.627,5.613-8.7,0-5.975-1.855-8.858-5.667-8.858-3.914.051-5.716,2.934-5.716,8.909S375.189,396.254,379.054,396.254Z" transform="translate(-365.405 -373.544)" fill="#f2d1a1"></path></g><g transform="translate(339.198 8.909)"><path d="M377.743,400.7a.461.461,0,0,1-.463-.463l.154-12.257-.051-13.338a.461.461,0,0,1,.463-.463h6.542a.461.461,0,0,1,.461.463l-.152,2.885a10.7,10.7,0,0,1,8.546-3.966c5.615,0,9.22,3.811,9.22,10.3v5.561l.152,10.816a.461.461,0,0,1-.461.463h-6.9a.461.461,0,0,1-.463-.463l.1-10.816v-5.458c0-2.885-1.7-4.738-4.017-4.738-2.782,0-5.767,2.576-5.767,8.24v1.956l.1,10.816a.462.462,0,0,1-.466.463Z" transform="translate(-377.28 -373.565)" fill="#f2d1a1"></path></g></g></g></svg>