<svg xmlns="http://www.w3.org/2000/svg" width="213" height="213" viewBox="0 0 213 213"><g transform="translate(-281.033 -5889)"><circle cx="106.5" cy="106.5" r="106.5" transform="translate(281.033 5889)"></circle><g transform="translate(297.045 5904.747)"><rect width="181.209" height="176.402" fill="none"></rect><path d="M131.426,357.86l-.943-.33L129.4,344.9l1.508.518.283,3.535,4.854,1.6,2.356-2.639,1.414.471Zm-.141-7.541.424,5.184,3.44-3.912Z" transform="translate(-68.416 -182.354)" fill="#fff"></path><path d="M105.148,350.025l-3.2-1.7c-4.006-2.121-4.524-5.325-3.016-8.153s4.43-4.242,8.436-2.121l3.2,1.7Zm1.6-10.792c-3.346-1.744-5.278-.377-6.362,1.7s-1.131,4.43,2.215,6.221l1.838.943,4.147-7.87Z" transform="translate(-51.892 -178.195)" fill="#fff"></path><path d="M77.8,329.313,77,328.7l3.063-12.3,1.272.943-.848,3.44,4.1,3.11,3.063-1.744,1.225.9Zm2.309-7.163-1.272,5.043,4.524-2.592Z" transform="translate(-40.711 -167.286)" fill="#fff"></path><path d="M52.306,311.036l-1.037-1.131,4.053-9.85L45.19,303.307l-.99-1.037,8.577-7.87,1.037,1.084-5.844,5.373c-.236.188-.707.613-.754.613a7.474,7.474,0,0,0,.99-.377l8.295-2.686.707.754-3.393,8.059c-.094.283-.424.9-.424.943a9.242,9.242,0,0,0,.707-.707l5.844-5.373.943,1.037Z" transform="translate(-23.369 -155.654)" fill="#fff"></path><path d="M21,267.467l-.66-1.414,4.383-2.074-2.781-5.8-4.383,2.074-.66-1.414L27.41,253.8l.66,1.414-4.948,2.356,2.781,5.8,4.948-2.356.66,1.414Z" transform="translate(-8.935 -134.188)" fill="#fff"></path><path d="M10.083,235.5l-.283-.99,9.8-8.012.424,1.508-2.733,2.262,1.414,4.9,3.535.424.424,1.461Zm6.127-4.383-4.053,3.3,5.184.613Z" transform="translate(-5.181 -119.754)" fill="#fff"></path><path d="M5.189,214.777,5,213.222l10.227-1.414-.754-5.42,1.272-.189.943,6.975Z" transform="translate(-2.644 -109.021)" fill="#fff"></path><path d="M2.8,192.511v-1.555l10.321-.189-.094-5.467h1.32l.094,7.022Z" transform="translate(-1.48 -97.971)" fill="#fff"></path><path d="M19.3,138.931l-4.948-1.32-1.367,5.326,5,1.272-.566,2.309L6.1,143.6l.613-2.309,4.336,1.131,1.414-5.278-4.336-1.131.613-2.309L20,136.622Z" transform="translate(-3.225 -70.689)" fill="#fff"></path><path d="M31.295,114.151l-3.11-.094-1.932,4.289,2.168,2.262-.943,2.074L18.9,113.4l.754-1.7,12.63.33Zm-9.426-.377,3.158,3.3,1.414-3.11Z" transform="translate(-9.993 -59.058)" fill="#fff"></path><path d="M42.225,91.949a6.421,6.421,0,0,1-3.488,2.686l-1.272-1.461a5.552,5.552,0,0,0,3.3-2.121c.613-.99.613-2.027-.236-2.592s-1.508-.377-2.969.99c-1.838,1.744-3.44,1.838-4.854.9-1.6-1.037-1.932-3.063-.566-5.137A6.3,6.3,0,0,1,35.015,82.9L36.1,84.22A6,6,0,0,0,33.6,86.2c-.613.943-.566,1.791.141,2.262.566.377,1.225.33,2.4-.8,2.074-1.885,3.629-2.262,5.326-1.131C43.639,87.8,43.451,90.111,42.225,91.949Z" transform="translate(-16.54 -43.831)" fill="#fff"></path><path d="M56.706,72.638a6.174,6.174,0,0,1-3.817,2.168l-1.037-1.649a5.06,5.06,0,0,0,3.535-1.7c.754-.9.9-1.932.141-2.592s-1.461-.566-3.063.566c-2.074,1.461-3.676,1.32-4.948.236-1.414-1.272-1.461-3.3.189-5.184A5.9,5.9,0,0,1,50.862,62.6l.9,1.461a6.192,6.192,0,0,0-2.733,1.6c-.754.848-.8,1.7-.189,2.262.518.424,1.178.471,2.5-.471,2.309-1.6,3.912-1.744,5.467-.377C58.686,68.727,58.167,70.989,56.706,72.638Z" transform="translate(-24.565 -33.098)" fill="#fff"></path><path d="M69.982,60.621,62.3,51.855,64.091,50.3l6.457,7.352,3.912-3.44,1.225,1.367Z" transform="translate(-32.939 -26.594)" fill="#fff"></path><path d="M88.109,42.6,81.7,32.894,88.015,28.7l1.037,1.555L84.669,33.13l1.508,2.262,3.535-2.356,1.037,1.555-3.535,2.356,1.838,2.828,4.383-2.922,1.037,1.555Z" transform="translate(-43.196 -15.174)" fill="#fff"></path><path d="M110.56,36.658l-.66-1.32,3.629-1.838.66,1.32Z" transform="translate(-58.106 -17.712)" fill="#fff"></path><path d="M123.028,14.24l.99,2.639,3.865-1.414.66,1.7-3.865,1.414,1.791,4.854-2.215.848L120.2,13.392l6.975-2.592.66,1.744Z" transform="translate(-63.552 -5.71)" fill="#fff"></path><path d="M155.629,16.22l-2.545.566-4.1-3.865-1.414.283.99,4.524-2.309.471L143.8,6.794l4.477-.943c2.686-.566,4.194.754,4.571,2.592a3.148,3.148,0,0,1-1.6,3.629ZM147.193,11.6l1.791-.377c1.461-.33,1.791-1.178,1.6-2.168s-.9-1.7-2.356-1.367l-1.791.377Z" transform="translate(-76.029 -3.024)" fill="#fff"></path><path d="M173.807,13.912,173.1,2.271l7.588-.471.094,1.838-5.231.33.189,2.733,4.242-.283.094,1.838-4.242.283.189,3.346,5.184-.33.094,1.838Z" transform="translate(-91.521 -0.952)" fill="#fff"></path><path d="M197.7,13.594,198.6,2l7.541.566L205.995,4.4l-5.184-.377-.189,2.733,4.242.33-.141,1.838-4.242-.33-.283,3.346,5.184.424-.141,1.838Z" transform="translate(-104.527 -1.057)" fill="#fff"></path><path d="M241.843,16.516a5.948,5.948,0,0,1,7.918-3.582,7.006,7.006,0,0,1,3.393,2.545l-.566,1.508a5.814,5.814,0,0,0-3.252-2.828,4.424,4.424,0,0,0-5.938,2.922,4.524,4.524,0,0,0,2.639,6.127,5.953,5.953,0,0,0,3.016.377l.9-2.5-2.262-.8.424-1.225,3.676,1.367-1.6,4.383a10.9,10.9,0,0,1-4.666-.377A6.042,6.042,0,0,1,241.843,16.516Z" transform="translate(-127.65 -6.619)" fill="#fff"></path><path d="M270.809,27.72l3.158-5.42,1.414.8-3.158,5.42c-1.508,2.592-.99,4.43.848,5.514s3.676.613,5.184-1.979l3.158-5.42,1.32.754-3.158,5.42c-1.979,3.393-4.619,3.912-7.211,2.4S268.83,31.113,270.809,27.72Z" transform="translate(-142.62 -11.79)" fill="#fff"></path><path d="M300.411,45.2l.754.66-3.582,12.159-1.225-1.037,1.037-3.393-3.959-3.3-3.158,1.6L289.1,50.95Zm-2.592,7.069,1.508-5-4.619,2.356Z" transform="translate(-152.852 -23.898)" fill="#fff"></path><path d="M319.672,60l2.545,2.875c1.791,1.979,1.367,3.865-.047,5.09a3.149,3.149,0,0,1-4.006.377L316.8,74.28l-1.178-1.367,1.367-5.7-1.367-1.555-3.582,3.2L311,67.682Zm-1.6,6.551a2.141,2.141,0,1,0,3.2-2.828l-1.508-1.7-3.158,2.828Z" transform="translate(-164.431 -31.723)" fill="#fff"></path><path d="M337.542,87.9l.566.848-7.069,10.51-.848-1.32,1.979-2.922-2.781-4.289-3.487.613-.8-1.272Zm-4.619,5.985,2.922-4.336-5.137.9Z" transform="translate(-171.886 -46.474)" fill="#fff"></path><path d="M350.751,107l.377.8-5.184,9.8,7.965-3.488.566,1.32L343.823,120.1l-.377-.8,5.184-9.8-7.965,3.488-.566-1.32Z" transform="translate(-179.816 -56.573)" fill="#fff"></path><path d="M362.044,138.136l-1.037-4.006,1.272-.33,2.5,9.52-1.272.33-1.037-4.006-9.991,2.592-.377-1.508Z" transform="translate(-186.161 -70.742)" fill="#fff"></path><path d="M367.5,163.1l.8,6.975-1.272.141-.613-5.467-3.535.424.518,4.477-1.272.141-.518-4.477-4.147.471.613,5.467-1.272.141-.8-6.975Z" transform="translate(-188.223 -86.234)" fill="#fff"></path><path d="M369.229,188.236l-.141,7.022h-1.32l.094-5.467-3.535-.047-.094,4.524-1.32-.047.094-4.524-4.194-.094-.094,5.467-1.32-.047.141-7.022Z" transform="translate(-188.963 -99.399)" fill="#fff"></path><path d="M109.281,183.5a1.093,1.093,0,0,1-.9-.66l-3.912-12.253H85.434l-3.77,12.253a1.026,1.026,0,0,1-.848.66H70.871a.445.445,0,0,1-.471-.471.283.283,0,0,1,.047-.189l17.2-49.485a1.026,1.026,0,0,1,.848-.66H102.07a1.093,1.093,0,0,1,.9.66l16.872,49.532a.468.468,0,0,1-.236.613.283.283,0,0,1-.189.047Zm-7.541-21.679L94.765,140.1l-6.6,21.726Z" transform="translate(-37.222 -70.161)" fill="#fff"></path><path d="M251.75,183.5a.644.644,0,0,1-.66-.66h0l.283-22.386h-22.2l.283,22.386a.644.644,0,0,1-.66.66H218.76a.644.644,0,0,1-.66-.66h0l.377-24.742L218.1,133.36a.644.644,0,0,1,.66-.66H228.8a.644.644,0,0,1,.66.66h0l-.236,18.946h22.056l-.236-18.946a.644.644,0,0,1,.66-.66h10.038a.644.644,0,0,1,.66.66h0l-.377,24.742.377,24.742a.644.644,0,0,1-.66.66H251.75Z" transform="translate(-115.313 -70.161)" fill="#fff"></path><circle cx="4.194" cy="4.194" r="4.194" transform="translate(84.124 82.051)" fill="#fff"></circle><path d="M178.953,291.09a85.9,85.9,0,0,1-11.546-.8.713.713,0,1,1,.188-1.414h0a91.363,91.363,0,0,0,11.358.8,82.483,82.483,0,0,0,81.721-69.232.688.688,0,0,1,.848-.566.679.679,0,0,1,.566.848A83.939,83.939,0,0,1,178.953,291.09Z" transform="translate(-88.184 -116.244)" fill="#fff"></path></g></g></svg>