<svg xmlns="http://www.w3.org/2000/svg" width="28.92" height="14.832" viewBox="0 0 28.92 14.832"><path d="M.744,0H9.72V-1.608H2.928L6.552-5.184C7.7-6.336,9.408-8.136,9.408-10.632c0-2.688-1.8-4.2-4.44-4.2A6.463,6.463,0,0,0,1.1-13.392v1.728A5.926,5.926,0,0,1,4.92-13.272c1.392,0,2.592.72,2.592,2.784,0,1.944-1.3,3.48-2.616,4.848L.744-1.32ZM13.176,0h2.016c.744-4.536,4.416-11.808,5.592-13.464V-14.4H11.328v1.608H18.72C17.952-11.688,14.112-4.488,13.176,0ZM24.72-1.2h1.3V-4.848h3.648v-1.3H26.016V-9.792h-1.3v3.648H21.072v1.3H24.72Z" transform="translate(-0.744 14.832)"></path></svg>