<svg xmlns="http://www.w3.org/2000/svg" xmlns:xlink="http://www.w3.org/1999/xlink" width="48.007" height="16.199" viewBox="0 0 48.007 16.199"><defs><clipPath id="a"><rect width="48.007" height="16.199" transform="translate(0 0)" fill="none" stroke="#000" stroke-width="1.5"/></clipPath></defs><g transform="translate(0 0)" clip-path="url(#a)"><path d="M3.984,16.422a2.258,2.258,0,0,1-.89-.186l-.051-.024a.75.75,0,0,1-.306-.23,2.445,2.445,0,0,1-.465-.947,2.791,2.791,0,0,1-.059-.915,7,7,0,0,1,.434-2.06l.031-.1a4.173,4.173,0,0,0,.294-1.4,3.594,3.594,0,0,0-1.12-1.076l-.011-.008A5.264,5.264,0,0,1,.05,7.594a2.43,2.43,0,0,1-.229-.589,2.493,2.493,0,0,1-.07-.67v-.02q0-.016,0-.031V6.235a.75.75,0,0,1,.1-.382,2.381,2.381,0,0,1,.625-.7A2.423,2.423,0,0,1,1.2,4.785,5.6,5.6,0,0,1,3.453,4.5h.019a3.859,3.859,0,0,0,1.371-.126,4.168,4.168,0,0,0,.594-1.432l0-.016A5.627,5.627,0,0,1,6.53.62,2.365,2.365,0,0,1,7.043.135,2.3,2.3,0,0,1,7.769-.2a.884.884,0,0,1,.417,0,2.323,2.323,0,0,1,.725.332A2.384,2.384,0,0,1,9.423.62a3.9,3.9,0,0,1,.7,1.15.75.75,0,0,1-1.385.577,2.415,2.415,0,0,0-.439-.73q-.025-.027-.048-.056a.881.881,0,0,0-.2-.193.734.734,0,0,0-.08-.048.721.721,0,0,0-.08.048.87.87,0,0,0-.2.193q-.022.029-.047.056a4.408,4.408,0,0,0-.771,1.732l-.005.017A4.582,4.582,0,0,1,5.8,5.543a.75.75,0,0,1-.146.105A4.359,4.359,0,0,1,3.45,6H3.431a4.277,4.277,0,0,0-1.677.18.749.749,0,0,1-.08.029.932.932,0,0,0-.3.143.806.806,0,0,0-.125.116.917.917,0,0,0,.026.176V6.65a.921.921,0,0,0,.094.237q.014.025.026.052A4.047,4.047,0,0,0,2.738,8.282l.011.008a4.24,4.24,0,0,1,1.664,1.842.75.75,0,0,1,.037.151,4.945,4.945,0,0,1-.344,2.141l-.031.1a5.69,5.69,0,0,0-.362,1.637.75.75,0,0,1,0,.079,1.3,1.3,0,0,0,.021.445.912.912,0,0,0,.083.218.7.7,0,0,0,.177.021.889.889,0,0,0,.31-.066q.034-.013.069-.023a4.625,4.625,0,0,0,1.446-.9L5.87,13.9a7.284,7.284,0,0,1,1.083-.75.75.75,0,0,1,.7,1.327,6.054,6.054,0,0,0-.854.6l-.053.042A5.86,5.86,0,0,1,4.8,16.269a2.341,2.341,0,0,1-.8.153Z"/><path d="M23.953-.25h.033a.75.75,0,0,1,.192.025,2.3,2.3,0,0,1,1.241.819,5.734,5.734,0,0,1,1.1,2.333,4.165,4.165,0,0,0,.6,1.436,2.862,2.862,0,0,0,1.032.131c.121,0,.243,0,.367,0s.266,0,.4,0a4.777,4.777,0,0,1,1.855.289,2.349,2.349,0,0,1,1.352,1.068.75.75,0,0,1,.106.384c0,.02,0,.04,0,.061s0,.017,0,.026a2.471,2.471,0,0,1-.3,1.276A5.331,5.331,0,0,1,30.113,9.5a3.614,3.614,0,0,0-1.125,1.081,4.579,4.579,0,0,0,.323,1.489,7.059,7.059,0,0,1,.439,2.077,2.537,2.537,0,0,1-.525,1.866.75.75,0,0,1-.306.229l-.052.025a2.262,2.262,0,0,1-1.713.032,5.879,5.879,0,0,1-1.944-1.155,3.849,3.849,0,0,0-1.241-.777,3.845,3.845,0,0,0-1.24.776A5.875,5.875,0,0,1,20.785,16.3a2.261,2.261,0,0,1-1.713-.033l-.052-.024a.75.75,0,0,1-.306-.229,2.537,2.537,0,0,1-.526-1.867,7.066,7.066,0,0,1,.439-2.074,4.571,4.571,0,0,0,.323-1.491A3.609,3.609,0,0,0,17.824,9.5,5.341,5.341,0,0,1,16.015,7.59a2.47,2.47,0,0,1-.3-1.266c0-.033,0-.064,0-.1a.75.75,0,0,1,.107-.386,2.353,2.353,0,0,1,1.351-1.067,4.777,4.777,0,0,1,1.855-.289c.134,0,.268,0,.4,0s.246,0,.367,0a2.862,2.862,0,0,0,1.031-.131,4.173,4.173,0,0,0,.595-1.436A5.737,5.737,0,0,1,22.52.593a2.309,2.309,0,0,1,1.241-.818A.75.75,0,0,1,23.953-.25Zm4.19,6.244A3.74,3.74,0,0,1,26.3,5.637a.75.75,0,0,1-.146-.105,4.585,4.585,0,0,1-1.081-2.182A4.522,4.522,0,0,0,24.3,1.59q-.024-.026-.045-.054a.84.84,0,0,0-.282-.244.85.85,0,0,0-.284.246q-.021.027-.044.052a4.526,4.526,0,0,0-.781,1.76A4.589,4.589,0,0,1,21.78,5.531a.75.75,0,0,1-.146.105,3.74,3.74,0,0,1-1.839.357c-.128,0-.258,0-.388,0s-.252,0-.378,0a3.408,3.408,0,0,0-1.3.185.749.749,0,0,1-.083.03.85.85,0,0,0-.423.261.949.949,0,0,0,.122.423q.013.024.025.049A4.063,4.063,0,0,0,18.72,8.292a4.255,4.255,0,0,1,1.671,1.847.75.75,0,0,1,.037.151,5.119,5.119,0,0,1-.373,2.238,5.759,5.759,0,0,0-.367,1.652.751.751,0,0,1,0,.076,1.107,1.107,0,0,0,.105.67.77.77,0,0,0,.491-.044q.034-.013.07-.023a4.638,4.638,0,0,0,1.449-.9,4.291,4.291,0,0,1,2.086-1.1.749.749,0,0,1,.167,0,4.294,4.294,0,0,1,2.087,1.1,4.642,4.642,0,0,0,1.449.9q.036.01.071.023a.767.767,0,0,0,.49.044,1.11,1.11,0,0,0,.1-.67.751.751,0,0,1,0-.077,5.75,5.75,0,0,0-.367-1.654,5.123,5.123,0,0,1-.373-2.235.751.751,0,0,1,.038-.153,4.259,4.259,0,0,1,1.67-1.846,4.054,4.054,0,0,0,1.355-1.358q.012-.025.025-.05a.957.957,0,0,0,.124-.423A.849.849,0,0,0,30.3,6.2a.748.748,0,0,1-.083-.03,3.408,3.408,0,0,0-1.3-.185c-.127,0-.253,0-.378,0S28.271,5.994,28.143,5.994Z"/><path d="M11.967,16.422a2.258,2.258,0,0,1-.89-.186l-.051-.024a.75.75,0,0,1-.306-.23,2.445,2.445,0,0,1-.465-.947,2.791,2.791,0,0,1-.059-.915,7,7,0,0,1,.434-2.06l.031-.1a4.173,4.173,0,0,0,.294-1.4,3.594,3.594,0,0,0-1.12-1.076l-.011-.008A5.265,5.265,0,0,1,8.033,7.594,2.43,2.43,0,0,1,7.8,7.005a2.493,2.493,0,0,1-.07-.67v-.02q0-.016,0-.031V6.235a.75.75,0,0,1,.1-.382,2.381,2.381,0,0,1,.625-.7,2.423,2.423,0,0,1,.724-.366,5.6,5.6,0,0,1,2.25-.284h.019a3.859,3.859,0,0,0,1.371-.126,4.168,4.168,0,0,0,.594-1.432l0-.016A5.627,5.627,0,0,1,14.513.62a2.365,2.365,0,0,1,.513-.485A2.3,2.3,0,0,1,15.752-.2a.884.884,0,0,1,.417,0,2.323,2.323,0,0,1,.725.332,2.412,2.412,0,0,1,.512.485,3.915,3.915,0,0,1,.7,1.15.75.75,0,1,1-1.385.577,2.431,2.431,0,0,0-.439-.731q-.023-.025-.044-.052a.909.909,0,0,0-.2-.2.734.734,0,0,0-.08-.048.721.721,0,0,0-.08.048.87.87,0,0,0-.2.193q-.022.029-.047.056a4.408,4.408,0,0,0-.771,1.732l-.005.017A4.582,4.582,0,0,1,13.78,5.543a.75.75,0,0,1-.146.105,4.359,4.359,0,0,1-2.2.353h-.019a4.277,4.277,0,0,0-1.677.18.749.749,0,0,1-.08.029.932.932,0,0,0-.3.143.806.806,0,0,0-.125.116.917.917,0,0,0,.026.176V6.65a.921.921,0,0,0,.094.237q.014.025.026.052a4.047,4.047,0,0,0,1.339,1.344l.011.008A4.24,4.24,0,0,1,12.4,10.132a.75.75,0,0,1,.037.151,4.945,4.945,0,0,1-.344,2.141l-.031.1a5.691,5.691,0,0,0-.362,1.637.75.75,0,0,1,0,.079,1.3,1.3,0,0,0,.021.445.912.912,0,0,0,.083.218.7.7,0,0,0,.177.021.889.889,0,0,0,.31-.066q.034-.013.069-.023a4.612,4.612,0,0,0,1.439-.89l.061-.048a7.28,7.28,0,0,1,1.082-.749.75.75,0,0,1,.7,1.327,6.054,6.054,0,0,0-.854.6l-.06.048a5.847,5.847,0,0,1-1.935,1.149,2.341,2.341,0,0,1-.8.153Z"/><path d="M44.022,16.422H44a2.341,2.341,0,0,1-.8-.153,5.86,5.86,0,0,1-1.942-1.154l-.053-.042a6.051,6.051,0,0,0-.853-.6.75.75,0,0,1,.7-1.327,7.28,7.28,0,0,1,1.082.749l.054.043a4.626,4.626,0,0,0,1.446.9q.035.01.069.023a.882.882,0,0,0,.317.066.7.7,0,0,0,.17-.021.911.911,0,0,0,.083-.218,1.3,1.3,0,0,0,.021-.445.751.751,0,0,1,0-.079,5.691,5.691,0,0,0-.362-1.637l-.031-.1a4.943,4.943,0,0,1-.344-2.14.75.75,0,0,1,.037-.151A4.24,4.24,0,0,1,45.257,8.29l.011-.008a4.049,4.049,0,0,0,1.339-1.345q.012-.026.026-.052a.921.921,0,0,0,.094-.237V6.644a.918.918,0,0,0,.026-.176.8.8,0,0,0-.124-.115.933.933,0,0,0-.3-.144.749.749,0,0,1-.08-.029A4.277,4.277,0,0,0,44.576,6h-.019a4.359,4.359,0,0,1-2.2-.353.75.75,0,0,1-.146-.105,4.582,4.582,0,0,1-1.079-2.178l0-.016a4.41,4.41,0,0,0-.771-1.733q-.025-.027-.047-.056a.867.867,0,0,0-.2-.191.743.743,0,0,0-.082-.049.756.756,0,0,0-.082.049.907.907,0,0,0-.2.194q-.021.027-.044.052a2.431,2.431,0,0,0-.439.731.75.75,0,1,1-1.385-.577,3.915,3.915,0,0,1,.7-1.15,2.407,2.407,0,0,1,.51-.483A2.326,2.326,0,0,1,39.821-.2a.884.884,0,0,1,.417,0,2.3,2.3,0,0,1,.728.333,2.361,2.361,0,0,1,.511.484,5.629,5.629,0,0,1,1.089,2.307l0,.015a4.168,4.168,0,0,0,.594,1.432,3.859,3.859,0,0,0,1.371.126h.019a5.6,5.6,0,0,1,2.25.284,2.424,2.424,0,0,1,.724.366,2.38,2.38,0,0,1,.625.7.75.75,0,0,1,.1.382v.049q0,.016,0,.031v.02a2.494,2.494,0,0,1-.07.669,2.43,2.43,0,0,1-.229.59,5.266,5.266,0,0,1-1.793,1.892l-.01.007a3.594,3.594,0,0,0-1.12,1.076,4.17,4.17,0,0,0,.294,1.394l.031.1a7,7,0,0,1,.434,2.06,2.791,2.791,0,0,1-.059.915,2.445,2.445,0,0,1-.465.947.75.75,0,0,1-.306.23l-.05.024A2.258,2.258,0,0,1,44.022,16.422Z"/><path d="M36.039,16.422h-.022a2.341,2.341,0,0,1-.8-.153,5.846,5.846,0,0,1-1.935-1.149l-.06-.048a6.055,6.055,0,0,0-.854-.6.75.75,0,0,1,.7-1.327,7.28,7.28,0,0,1,1.082.749l.061.048a4.612,4.612,0,0,0,1.439.89q.035.01.069.023a.881.881,0,0,0,.317.066.7.7,0,0,0,.17-.021.912.912,0,0,0,.083-.218,1.3,1.3,0,0,0,.021-.445.75.75,0,0,1,0-.079,5.69,5.69,0,0,0-.362-1.637l-.031-.1a4.943,4.943,0,0,1-.344-2.14.75.75,0,0,1,.037-.151A4.24,4.24,0,0,1,37.274,8.29l.011-.008a4.049,4.049,0,0,0,1.339-1.345q.012-.026.026-.052a.921.921,0,0,0,.094-.237V6.644a.918.918,0,0,0,.026-.176.8.8,0,0,0-.124-.115.933.933,0,0,0-.3-.144.749.749,0,0,1-.08-.029A4.277,4.277,0,0,0,36.593,6h-.019a4.359,4.359,0,0,1-2.2-.353.75.75,0,0,1-.146-.105,4.582,4.582,0,0,1-1.079-2.178l0-.016a4.411,4.411,0,0,0-.771-1.733q-.025-.027-.047-.056a.867.867,0,0,0-.2-.191.743.743,0,0,0-.082-.049.756.756,0,0,0-.082.049.879.879,0,0,0-.2.191q-.022.029-.048.056a2.415,2.415,0,0,0-.439.73A.75.75,0,0,1,29.9,1.77,3.9,3.9,0,0,1,30.6.62a2.38,2.38,0,0,1,.51-.484A2.326,2.326,0,0,1,31.838-.2a.884.884,0,0,1,.417,0,2.3,2.3,0,0,1,.728.333,2.361,2.361,0,0,1,.511.484,5.629,5.629,0,0,1,1.089,2.307l0,.015a4.168,4.168,0,0,0,.594,1.432,3.859,3.859,0,0,0,1.371.126h.019a5.6,5.6,0,0,1,2.25.284,2.423,2.423,0,0,1,.724.366,2.38,2.38,0,0,1,.625.7.75.75,0,0,1,.1.382v.049q0,.016,0,.031v.02a2.493,2.493,0,0,1-.07.67,2.429,2.429,0,0,1-.229.588A5.266,5.266,0,0,1,38.18,9.486l-.01.007a3.594,3.594,0,0,0-1.12,1.076,4.169,4.169,0,0,0,.294,1.394l.031.1a7,7,0,0,1,.434,2.06,2.791,2.791,0,0,1-.059.915,2.445,2.445,0,0,1-.465.947.75.75,0,0,1-.3.228l-.055.026A2.267,2.267,0,0,1,36.039,16.422Z"/></g></svg>