<svg xmlns="http://www.w3.org/2000/svg" xmlns:xlink="http://www.w3.org/1999/xlink" width="24.098" height="26.898" viewBox="0 0 24.098 26.898"><defs><clipPath id="a"><rect width="24.098" height="26.898" transform="translate(0 0)" fill="none" stroke="#000" stroke-width="1.5"/></clipPath></defs><g clip-path="url(#a)"><path d="M12.047,27.148a.75.75,0,0,1-.3-.062,23.766,23.766,0,0,1-5.5-3.29A.75.75,0,0,1,7.2,22.629a22.142,22.142,0,0,0,4.852,2.949,20.331,20.331,0,0,0,7.77-5.9,13.683,13.683,0,0,0,3.031-8.428c0-1.661-.01-3.354-.019-4.991-.007-1.123-.013-2.273-.017-3.421a9.346,9.346,0,0,1-4.768,1.214,8.149,8.149,0,0,1-6-2.208,8.148,8.148,0,0,1-6,2.208A9.346,9.346,0,0,1,1.283,2.842c0,1.087-.01,2.175-.016,3.238Q1.26,7.226,1.254,8.372c0,.143,0,.286,0,.43s0,.288,0,.432a.75.75,0,1,1-1.5-.005q0-.217,0-.434t0-.429q.005-1.148.013-2.3c.009-1.578.019-3.21.019-4.813A.75.75,0,0,1,1.108.772,6.713,6.713,0,0,0,6.051,2.556c2.475,0,4.708-.992,5.31-2.358a.75.75,0,0,1,1.373,0c.6,1.366,2.835,2.358,5.311,2.358A6.717,6.717,0,0,0,22.988.772a.75.75,0,0,1,1.321.486c0,1.664.01,3.358.019,5s.02,3.334.02,5A15.167,15.167,0,0,1,21,20.6a21.951,21.951,0,0,1-8.655,6.482A.75.75,0,0,1,12.047,27.148Z"/><path d="M8.811,21.6A5.664,5.664,0,0,1,4.119,19a.75.75,0,0,1,1.248-.832A4.219,4.219,0,0,0,8.894,20.1L13.7,20a.342.342,0,0,0,.244-.12.474.474,0,0,0,.121-.347.432.432,0,0,0-.037-.146l-.133-.034a1.776,1.776,0,0,1-.5-.177.75.75,0,0,1,.223-1.37,2.32,2.32,0,0,1,.4-.038l.225-.013a.441.441,0,0,0,.189-.394.431.431,0,0,0-.074-.21l-.051-.015a1.484,1.484,0,0,1-.4-.155.75.75,0,0,1,.233-1.366,1.861,1.861,0,0,1,.357-.031l.107,0a.443.443,0,0,0,.185-.359.085.085,0,0,0-.019-.017l-.428-.271a.75.75,0,0,1,.468-1.38l.089.008c.059,0,.192-.012.255-.021a.518.518,0,0,0,.3-.5.291.291,0,0,0-.1-.214.518.518,0,0,0-.376-.133l-4.482.277a.75.75,0,0,1-.7-1.112l1.221-2.2a4.5,4.5,0,0,0,.3-2.143.481.481,0,0,0-.328-.1l-1.3,2.626a.75.75,0,0,1-.163.218L5.67,13.8a.75.75,0,1,1-1.017-1.1L8.4,9.237l1.272-2.57A1.452,1.452,0,0,1,11.11,5.9a1.792,1.792,0,0,1,1.6,1.056,5.506,5.506,0,0,1-.39,3.414l-.558,1.006,3.116-.193a2.01,2.01,0,0,1,1.5.538,1.782,1.782,0,0,1,.575,1.307,2.071,2.071,0,0,1-.77,1.625,1.371,1.371,0,0,1,.1.417,1.947,1.947,0,0,1-.54,1.492,1.934,1.934,0,0,1-.361,2.172,1.935,1.935,0,0,1,.179.679,1.975,1.975,0,0,1-.5,1.469,1.829,1.829,0,0,1-1.322.613L8.926,21.6Z"/><path d="M.916-.75h2.2A1.668,1.668,0,0,1,4.781.916V8.169A1.668,1.668,0,0,1,3.115,9.835H.916A1.668,1.668,0,0,1-.75,8.169V.916A1.668,1.668,0,0,1,.916-.75Zm2.2,9.085a.166.166,0,0,0,.166-.166V.916A.166.166,0,0,0,3.115.75H.916A.166.166,0,0,0,.75.916V8.169a.166.166,0,0,0,.166.166Z" transform="translate(0.574 11.768)"/><path d="M.045.75H0A.75.75,0,0,1-.75,0,.75.75,0,0,1,0-.75H.045A.75.75,0,0,1,.795,0,.75.75,0,0,1,.045.75Z" transform="translate(2.608 18.667)"/><path d="M18.751,19.755a.75.75,0,0,1-.577-1.228A11.231,11.231,0,0,0,20.9,11.341c0-1.369-.008-2.272-.016-3.146s-.016-1.785-.016-3.163a.75.75,0,0,1,1.5,0c0,1.371.008,2.275.016,3.15s.016,1.784.016,3.159a12.711,12.711,0,0,1-3.069,8.142A.748.748,0,0,1,18.751,19.755Z"/></g></svg>