<svg xmlns="http://www.w3.org/2000/svg" width="28.144" height="26.59" viewBox="0 0 28.144 26.59"><g transform="translate(0.251 0.25)"><path d="M25.5,13.55a.75.75,0,0,1-.53-1.281,4.548,4.548,0,0,0,1.338-4.2,8.5,8.5,0,0,0-2.238-4.189,10.158,10.158,0,0,0-2.41-1.939,6.87,6.87,0,0,0-2.891-.687,4.989,4.989,0,0,0-3.646,1.305L10.018,7.64a.553.553,0,0,0-.085.1,1.371,1.371,0,0,0,.775.359,2.4,2.4,0,0,0,2.118-.563L14.113,6.27l.023-.022c1.184-1.073,2.491-.678,3.643-.33,1.265.382,2.357.712,3.669-.322a.75.75,0,0,1,.929,1.178c-1.926,1.519-3.721.977-5.032.581-1.075-.325-1.664-.473-2.192,0L13.88,8.607A3.755,3.755,0,0,1,11.2,9.65,3.3,3.3,0,0,1,8.9,8.827,1.511,1.511,0,0,1,8.96,6.576L14.071,1.49l.006-.006A6.4,6.4,0,0,1,18.8-.248,8.242,8.242,0,0,1,22.4.63a11.671,11.671,0,0,1,2.774,2.225,10.009,10.009,0,0,1,2.618,4.953,6.049,6.049,0,0,1-1.756,5.522A.748.748,0,0,1,25.5,13.55Z"/><path d="M2.2,12.749a.748.748,0,0,1-.53-.219,6.187,6.187,0,0,1-1.9-5.074,8.3,8.3,0,0,1,2.2-4.719A9.045,9.045,0,0,1,6.468-.009,6.343,6.343,0,0,1,11.7.917a.75.75,0,0,1-.852,1.234,4.881,4.881,0,0,0-4.023-.7,7.533,7.533,0,0,0-3.73,2.3A6.8,6.8,0,0,0,1.271,7.595a4.731,4.731,0,0,0,1.462,3.874.75.75,0,0,1-.53,1.281Z"/><path d="M22.78,18.587a2.413,2.413,0,0,1-1.751-.817l-3.085-3.181a.75.75,0,0,1,1.077-1.044l3.085,3.181c.42.433.814.478,1.172.134a1.018,1.018,0,0,0,.123-1.406L17.937,9.727a.75.75,0,0,1,1.085-1.035l5.463,5.727a2.512,2.512,0,0,1-.168,3.523A2.223,2.223,0,0,1,22.78,18.587Z"/><path d="M20.272,20.9a2.236,2.236,0,0,1-1.625-.686l-3.391-3.484a.75.75,0,0,1,1.075-1.046l3.391,3.484a.978.978,0,0,0,1.359-.114.813.813,0,0,0-.052-1.288l-3.315-3.42a.75.75,0,1,1,1.077-1.044l3.315,3.42a2.308,2.308,0,0,1,.02,3.408,2.744,2.744,0,0,1-1.64.761Q20.379,20.9,20.272,20.9Z"/><path d="M17.813,22.853a.75.75,0,0,1-.157-1.483,1.015,1.015,0,0,0,.694-.722.92.92,0,0,0-.169-.91A.75.75,0,1,1,19.267,18.7a2.388,2.388,0,0,1,.517,2.386,2.5,2.5,0,0,1-1.812,1.746A.753.753,0,0,1,17.813,22.853Z"/><path d="M4.86,18.353a2.447,2.447,0,0,1-.254-.013,2.675,2.675,0,0,1-1.585-.76L2.84,17.4a2.328,2.328,0,0,1,0-3.287l2.344-2.345a2.328,2.328,0,0,1,3.287,0l.181.181a2.477,2.477,0,0,1,.078,3.41A.75.75,0,0,1,7.67,14.3a.994.994,0,0,0-.078-1.289l-.181-.181a.826.826,0,0,0-1.166,0L3.9,15.171a.826.826,0,0,0,0,1.166l.181.181a1.166,1.166,0,0,0,.68.329.633.633,0,0,0,.524-.156.75.75,0,0,1,1.061,1.061A2.066,2.066,0,0,1,4.86,18.353Z"/><path d="M7.352,20.742H7.284a2.516,2.516,0,0,1-1.709-.7l-.181-.181a2.33,2.33,0,0,1,0-3.288l3.733-3.734a2.329,2.329,0,0,1,3.288,0l.181.181a2.171,2.171,0,0,1,.61,2.176A4.733,4.733,0,0,1,11.932,17.2a.75.75,0,0,1-1.08-1.041c1.357-1.409.884-1.881.683-2.082l-.181-.181a.826.826,0,0,0-1.167,0L6.454,17.633a.83.83,0,0,0,0,1.166l.181.181a1.022,1.022,0,0,0,.687.261.9.9,0,0,0,.649-.216.75.75,0,0,1,1.061,1.061A2.369,2.369,0,0,1,7.352,20.742Z"/><path d="M10.01,23.042H9.985a2.456,2.456,0,0,1-1.711-.687L8.1,22.177a2.328,2.328,0,0,1,0-3.29l2.56-2.56a2.329,2.329,0,0,1,3.287,0l.181.181c.509.509,1.476,1.92-.537,4.019A.75.75,0,1,1,12.5,19.489c1.214-1.265.738-1.74.559-1.919l-.181-.181a.829.829,0,0,0-1.165,0l-2.56,2.56a.826.826,0,0,0,0,1.167l.179.178a.964.964,0,0,0,.666.249.918.918,0,0,0,.65-.23.75.75,0,0,1,1.061,1.061A2.4,2.4,0,0,1,10.01,23.042Z"/><path d="M1.574-.75H3.8A2.327,2.327,0,0,1,6.121,1.574V1.83A2.327,2.327,0,0,1,3.8,4.154H1.575A2.327,2.327,0,0,1-.75,1.83V1.574A2.327,2.327,0,0,1,1.574-.75ZM3.8,2.654a.825.825,0,0,0,.824-.824V1.574A.825.825,0,0,0,3.8.75H1.574a.825.825,0,0,0-.824.824V1.83a.825.825,0,0,0,.825.825Z" transform="translate(10.145 22.872) rotate(-45)"/></g></svg>