<svg xmlns="http://www.w3.org/2000/svg" width="29.543" height="27.521" viewBox="0 0 29.543 27.521"><g transform="translate(-405.891 -283.83)"><path d="M423.806,302.276a.751.751,0,0,1-.555-.245l-2.122-2.329a.75.75,0,0,1,1.108-1.01l1.507,1.654,3.237-4.391a.75.75,0,1,1,1.207.89l-3.779,5.127a.749.749,0,0,1-.564.3Z" fill="#030504"/><path d="M433.025,294.13a.75.75,0,0,1-.548-1.261l.917-.984-2.368-2.213-.916.98a.75.75,0,1,1-1.095-1.026l1.11-1.186a1.22,1.22,0,0,1,1.719-.057l2.781,2.6a1.223,1.223,0,0,1,.06,1.717l-1.111,1.191A.747.747,0,0,1,433.025,294.13Z" fill="#030504"/><path d="M423.871,308.48a.75.75,0,0,1-.75-.75V306.5a.75.75,0,0,1,1.5,0v1.228A.75.75,0,0,1,423.871,308.48Zm7.949-7.95h-1.23a.75.75,0,0,1,0-1.5h1.23a.75.75,0,0,1,0,1.5Zm-14.668,0h-1.231a.75.75,0,0,1,0-1.5h1.231a.75.75,0,0,1,0,1.5Zm6.718-6.716a.75.75,0,0,1-.75-.75V291.83a.75.75,0,0,1,1.5,0v1.234A.75.75,0,0,1,423.87,293.814Zm0-4.4a.75.75,0,0,1-.75-.75V285.33h-2.207a.75.75,0,0,1,0-1.5h5.915a.75.75,0,0,1,0,1.5H424.62v3.338A.75.75,0,0,1,423.87,289.418Z" fill="#030504"/><path d="M423.868,309.181h-.006a9.4,9.4,0,0,1,.008-18.8h0a9.4,9.4,0,0,1,0,18.8Zm0-17.3a7.9,7.9,0,1,0-.008,15.8h.005a7.9,7.9,0,0,0,0-15.8Z" fill="#030504"/><path d="M413.048,300.541h-6.407a.75.75,0,0,1,0-1.5h6.407a.75.75,0,0,1,0,1.5Z" fill="#030504"/><path d="M413.464,303.7h-5.21a.75.75,0,0,1,0-1.5h5.21a.75.75,0,0,1,0,1.5Z" fill="#030504"/><path d="M415.113,306.857h-3.989a.75.75,0,0,1,0-1.5h3.989a.75.75,0,0,1,0,1.5Z" fill="#030504"/><path d="M423.853,311.351a11.555,11.555,0,0,1-9.364-4.792.75.75,0,1,1,1.217-.877,10.07,10.07,0,1,0-.048-11.728.749.749,0,1,1-1.222-.868,11.57,11.57,0,1,1,9.417,18.265Z" fill="#030504"/><path d="M415.112,294.225h-4.7a.75.75,0,0,1,0-1.5h4.7a.75.75,0,0,1,0,1.5Z" fill="#030504"/><path d="M413.522,297.383h-5.268a.75.75,0,0,1,0-1.5h5.268a.75.75,0,0,1,0,1.5Z" fill="#030504"/></g></svg>